<svg viewBox="0 0 259 45" xmlns="http://www.w3.org/2000/svg"><g fill="none" fill-rule="evenodd"><path d="M135.955 11.829H129v-.355C129 5.19 133.999 0 141.905 0c7.471 0 12.443 4.344 12.443 10.436 0 4.343-2.255 7.294-6.52 11.883l-8.368 9.452v.219H155V38h-25.538v-4.59l13.475-14.697c2.418-2.568 4.13-4.78 4.13-7.594 0-3.17-2.337-5.218-5.488-5.218-3.45 0-5.624 2.54-5.624 5.518v.41z" fill="#6bf"/><path d="M0 29.945h5.695c.196 2.318 2.27 4.374 6.175 4.374 3.622 0 5.608-1.662 5.608-4.134 0-2.1-1.506-3.171-4.582-3.871l-4.604-1.072c-4.08-.919-7.55-3.237-7.55-8.246 0-5.818 4.975-9.034 11.106-9.034 6.394 0 10.976 3.5 11.063 8.859h-5.542c-.197-2.231-1.964-4.222-5.543-4.222-3.163 0-5.193 1.51-5.193 3.938 0 1.793 1.397 3.018 4.08 3.609l4.626 1.071c4.408.963 8.008 3.084 8.008 8.421C23.347 35.5 18.722 39 11.543 39 2.903 39 .087 34.1 0 29.945zm31.542.525v7.961h-5.76V7h5.76v17.76h.261l7.55-9.536h6.655l-8.444 10.018 9.012 13.19H39.79l-6.612-9.887-1.636 1.925zm24.58 8.377c-6.349 0-10.495-3.981-10.495-11.09v-2.121c0-6.803 4.168-10.827 10.256-10.827 6.306 0 10.211 4.309 10.211 10.98v2.275H51.257v.634c0 3.521 1.985 5.752 4.91 5.752 2.29 0 3.905-1.137 4.385-3.018h5.324c-.545 3.718-3.556 7.415-9.753 7.415zM51.258 24.41h9.273v-.044c0-2.997-1.81-5.271-4.604-5.271-2.814 0-4.67 2.296-4.67 5.271v.044zm19.213-9.187V9.668h5.586v5.556h4.495v4.462h-4.495v11.44c0 2.318.982 3.018 3.36 3.018.48 0 .96-.022 1.222-.044v4.266c-.436.087-1.462.197-2.618.197-5.76 0-7.659-1.947-7.659-6.694V19.686h-3.273v-4.462h3.382zM82.09 27.67v-1.925c0-6.43 3.84-10.936 10.3-10.936 5.847 0 9.404 3.718 9.535 8.18h-5.303c-.305-1.925-1.833-3.587-3.971-3.587-2.99 0-4.8 2.45-4.8 6.409v1.837c0 4.09 1.854 6.584 4.822 6.584 2.553 0 3.797-1.553 4.058-3.325h5.303c-.48 5.184-4.19 7.94-9.667 7.94-6.393 0-10.277-4.418-10.277-11.177zm22.29 10.761V7h5.739v11.614h.24c.742-1.596 2.793-3.762 6.633-3.762 4.67 0 8.008 2.953 8.008 8.64v14.94h-5.739V24.738c0-3.565-2.029-4.987-4.538-4.987-2.968 0-4.604 2.143-4.604 5.074V38.43h-5.739zM181.36 38h-5.926V25.143h-12.53V38H157V8h5.904v12.198h12.53V8h5.926v30zm15.734 0h-5.904V12.967h-8.485V8h22.873v4.967h-8.484V38zm15.165 0h-5.27V8h6.013l8.507 19.363h.175L230.212 8h5.97v30h-5.314V18.176h-.241l-7.129 16.066h-3.848l-7.15-16.066h-.241V38zM259 32.945V38h-18.565V8h5.904v24.945H259z" fill="#444" fill-rule="nonzero"/><g fill="#6bf"><path d="M147.894 28.286l2.836-2.836 9.667 9.667-2.836 2.836z"/><path d="M150.673 44.841l-2.82-2.82 9.724-9.724 2.82 2.82z"/><path d="M148.915 33.42l7.427-.021-.009 2.856-7.427.022z"/></g></g></svg>