<svg xmlns="http://www.w3.org/2000/svg" viewBox="0 0 420 84"><path d="M114 70.5l-.9 4.5c-.3 1.4-.2 2 .4 2.6l-2 1.5c-.6-.5-.9-1.1-.9-1.9-.8 1.1-2 1.8-3.4 1.8-1.8 0-3-1.2-3-3.6 0-2.5.9-4.9 2.4-6.5 1.2-1.2 2.7-1.8 4.5-1.8 1.3 0 2.6.3 3.5.9-.1.6-.5 1.7-.6 2.5zm-3.2-1.5c-1 0-1.7.2-2.6 1.3-1 1.2-1.5 3.4-1.5 5 0 1.2.4 1.7 1.2 1.7 1 0 2.2-1 2.7-2.2l1.2-5.6c-.1-.1-.6-.2-1-.2zm20.2 1.5c1.6.3 2.5 1.6 2.5 3.1 0 1.1-.6 2.6-1.7 3.6-1.2 1.1-2.4 1.5-5 1.5h-4.9l3.3-15.5h4.9c2.9 0 4.4 1.3 4.4 3.4-.1 1.6-1.1 3.2-3.5 3.9zm-2.8 1.2h-2.3l-1 4.9h2.5c.9 0 1.6-.2 2.1-.6.7-.5 1.2-1.4 1.2-2.4 0-1.3-.6-1.9-2.5-1.9zm1.2-6.3h-2.2l-.9 4.2h2.2c1 0 1.6-.2 2-.5.6-.4 1-1.1 1-2 .1-1.2-.5-1.7-2.1-1.7zm15.5 7.1c-.9.9-2.5 1.4-4.8 1.4-.6 0-1.2-.1-1.4-.1 0 .2-.1.8-.1 1.2 0 1.4.8 2.1 2.1 2.1 1.2 0 2.2-.4 3.2-1.2l.8 1.5c-1.4 1.1-2.7 1.6-4.6 1.6-2.4 0-4-1.5-4-4.2 0-2.3 1-4.7 2.5-6.2 1.1-1.1 2.4-1.6 3.8-1.6 2.2 0 3.6 1 3.6 3-.1 1-.5 1.8-1.1 2.5zm-2.9-3.6c-1.3 0-2.4 1-2.9 3.1.1 0 .6.1 1 .1 1.4 0 2.3-.2 2.9-.7.3-.3.5-.7.5-1.1-.1-.8-.5-1.4-1.5-1.4zm15.8 1.7l-1.7 8.1h-2.5l1.6-7.5c.1-.5.2-.9.2-1.1 0-.7-.3-.9-.9-.9-.8 0-1.9.6-3.1 2.1l-1.6 7.4h-2.4l1.7-7.9c.3-1.3.3-2.1 0-2.9l2.3-.9c.2.5.4 1.3.2 2.1 1.1-1.3 2.5-2 4.1-2 1.4 0 2.3.9 2.3 2.2-.1.4-.1.9-.2 1.3zm20.4 8.2h-3l-.1-7.3c0-2.1.2-3.9.2-4.8-.2.5-1 2.9-1.8 4.7l-3.1 7.4h-3l-.4-15.6h2.7v7.4c0 2.4-.2 4.4-.2 5 .3-.9 1-2.9 1.9-4.8l3.3-7.6h2.8V71c0 1.7-.1 4-.2 4.5.2-.7 1.2-3.3 2-5.1l3.1-7.2h2.7l-6.9 15.6zm9.8.2c-2.5 0-4-1.5-4-4.1 0-4.4 2.7-7.8 6.5-7.8 2.6 0 4 1.5 4 4 0 4.1-2.3 7.9-6.5 7.9zm2.1-10c-2.2 0-3.4 3.6-3.4 6.2 0 1.4.7 2 1.8 2 2.2 0 3.4-3.4 3.4-6.1-.1-1.7-.8-2.1-1.8-2.1zm11.4-3.2l-2 9.2c-.2.9-.3 1.3-.3 1.6 0 .4.2.6.5.6h.4l.1 1.5c-.5.2-1.1.3-1.7.3-1.3 0-2-.7-2-1.8 0-.3.1-1 .2-1.6l2-9.4c.3-1.5.4-2.6.2-3.3l2.6-.9c.4.7.3 2.4 0 3.8zm11 9c-.5 2.4-.4 3.1-.1 3.7l-2.1.5c-.3-.4-.5-.9-.4-1.6-.9 1.1-2 1.7-3.3 1.7-2.3 0-3.3-1.3-3.3-3.9 0-2.3.9-4.7 2.5-6.3 1.1-1.1 2.5-1.6 3.8-1.6 1 0 1.8.2 2.2.4 0-.1.2-1.1.3-1.5l.8-3.8 2.4.4-2.8 12zm-3.1-5.6c-.7 0-1.5.4-2.1 1-.9 1.1-1.6 3.3-1.6 4.9 0 1.2.4 1.9 1.4 1.9.9 0 2.2-.8 2.9-2l1.1-5.3c-.4-.4-.9-.5-1.7-.5zm13.8.4c-.2-.1-.4-.2-.8-.2-.8 0-1.7.6-2.7 2l-1.5 7.3h-2.5l1.6-7.6c.3-1.6.3-2.4.1-3.2l2.3-.9c.2.6.3 1.4.2 2.2 1-1.3 2.3-2.1 3.4-2.1.4 0 .6 0 .9.2l-1 2.3zm3.6 9.1h-2.5l2.4-11.2 2.6-.4-2.5 11.6zm1.8-13c-.9 0-1.6-.7-1.6-1.6 0-.9.7-1.7 1.7-1.7.9 0 1.6.7 1.6 1.6 0 1-.8 1.7-1.7 1.7zm12.6 4.9l-1.7 8.1H237l1.6-7.5c.1-.5.2-.9.2-1.1 0-.7-.3-.9-.9-.9-.8 0-1.9.6-3.1 2.1l-1.6 7.4h-2.4l1.7-7.9c.3-1.3.3-2.1 0-2.9l2.3-.9c.2.5.4 1.3.2 2.1 1.1-1.3 2.5-2 4.1-2 1.4 0 2.3.9 2.3 2.2-.1.4-.1.9-.2 1.3zm12.9-.8l-1.2 5.6c-.4 1.7-.5 3-.7 3.9-.7 3.2-3 4.2-6 4.2-1.5 0-2.8-.3-4-1l.9-1.8c1 .6 2 .9 3.3.9 1.9 0 2.9-.7 3.3-2.3.1-.2.3-1.5.4-1.7-.9 1-1.9 1.4-3.1 1.4-2.2 0-3.3-1.3-3.3-3.9 0-2.3 1-5 2.5-6.4 1.1-1 2.6-1.7 4.2-1.7 1.8 0 3 .2 4.2.9-.1.2-.4 1.2-.5 1.9zm-3.9-.7c-.8 0-1.8.4-2.3 1.1-.9 1.1-1.6 3.4-1.6 4.9 0 1.3.5 2 1.5 2s2.1-.8 2.8-2l1.2-5.6c-.4-.3-1-.4-1.6-.4zm14.1 9.6h-2.5l2.4-11.2 2.6-.4-2.5 11.6zm1.8-13c-.9 0-1.6-.7-1.6-1.6 0-.9.7-1.7 1.7-1.7.9 0 1.6.7 1.6 1.6 0 1-.7 1.7-1.7 1.7zm11.8 9.1c-.5 2.4-.4 3.1-.1 3.7l-2.1.5c-.3-.4-.5-.9-.4-1.6-.9 1.1-2 1.7-3.3 1.7-2.3 0-3.3-1.3-3.3-3.9 0-2.3.9-4.7 2.5-6.3 1.1-1.1 2.5-1.6 3.8-1.6 1 0 1.8.2 2.2.4 0-.1.2-1.1.3-1.5l.8-3.8 2.4.4-2.8 12zm-3.1-5.6c-.7 0-1.5.4-2.1 1-.9 1.1-1.6 3.3-1.6 4.9 0 1.2.4 1.9 1.4 1.9.9 0 2.2-.8 2.9-2l1.1-5.3c-.4-.4-.9-.5-1.7-.5zm15.6 3.3c-.9.9-2.5 1.4-4.8 1.4-.6 0-1.2-.1-1.4-.1 0 .2-.1.8-.1 1.2 0 1.4.8 2.1 2.1 2.1 1.2 0 2.2-.4 3.2-1.2l.8 1.5c-1.4 1.1-2.7 1.6-4.6 1.6-2.4 0-4-1.5-4-4.2 0-2.3 1-4.7 2.5-6.2 1.1-1.1 2.4-1.6 3.8-1.6 2.2 0 3.6 1 3.6 3-.1 1-.5 1.8-1.1 2.5zm-2.9-3.6c-1.3 0-2.4 1-2.9 3.1.1 0 .6.1 1 .1 1.4 0 2.3-.2 2.9-.7.3-.3.5-.7.5-1.1-.1-.8-.5-1.4-1.5-1.4zm15 1.6l-.9 4.5c-.3 1.4-.2 2 .4 2.6l-2 1.5c-.6-.5-.9-1.1-.9-1.9-.8 1.1-2 1.8-3.4 1.8-1.8 0-3-1.2-3-3.6 0-2.5.9-4.9 2.4-6.5 1.2-1.2 2.7-1.8 4.5-1.8 1.3 0 2.6.3 3.5.9-.2.6-.5 1.7-.6 2.5zm-3.2-1.5c-1 0-1.7.2-2.6 1.3-1 1.2-1.5 3.4-1.5 5 0 1.2.4 1.7 1.2 1.7 1 0 2.2-1 2.7-2.2l1.2-5.6c-.2-.1-.6-.2-1-.2zM132.4 28.8c3.3.9 5.9 3.9 5.9 8 0 4.6-3 14.5-17 14.5h-17.1l8.9-42.1h18.7c5.3 0 9 3.2 9 8.2-.1 3.8-2.2 9.5-8.4 11.4zm-9.8 5.1h-4l-1.8 8.3h4.1c3.1 0 5-2.5 5-5.7 0-1.4-.7-2.6-3.3-2.6zm3.6-15.9H122l-1.6 7.3h4.3c2.4 0 4.5-2.1 4.5-5 0-1.5-.9-2.3-3-2.3zm30.3 21.2c-1.8 0-3.2-.1-3.7-.2-.1.6-.2 1.6-.2 1.9 0 3 1.1 3.9 4.3 3.9 2.7 0 6.1-1.3 8.8-3.1l2.1 6.6c-5 2.8-9.6 3.9-12.8 3.9-8.9 0-13-3.6-13-11.5 0-11.5 6.8-21.3 18.3-21.3 6.5 0 11.8 2.5 11.8 8.9-.1 5.6-5.4 10.9-15.6 10.9zm2.7-12.6c-2.7 0-4.1 2.1-4.8 5.3.3.1 1 .3 2.2.3 2.4 0 5-1.2 5-3.4 0-1.4-.8-2.2-2.4-2.2zm31.8-12l-5 23.1c-.5 2.4-.8 3.9-.8 5 0 1.4.5 1.9 1.9 1.9.4 0 .7-.1 1.1-.2l.3 6.5c-1.5.5-4.1 1-7 1-6 0-7.5-2.1-7.5-5.3 0-1.6.4-3.4.8-5.5l4.5-21.3c.7-3.5 1.8-7.7 1.6-11.3l10.9-1.8v.7c.1 1.8-.2 4.5-.8 7.2zm18.2 0l-5 23.1c-.5 2.4-.8 3.9-.8 5 0 1.4.5 1.9 1.9 1.9.4 0 .7-.1 1.1-.2l.3 6.5c-1.5.5-4.1 1-7 1-6 0-7.5-2.1-7.5-5.3 0-1.6.4-3.4.8-5.5l4.5-21.3c.7-3.5 1.8-7.7 1.6-11.3L210 6.7v.7c.2 1.8-.1 4.5-.8 7.2zm16.1 24.6c-1.7 0-3.2-.1-3.7-.2-.1.6-.2 1.6-.2 1.9 0 3 1.1 3.9 4.3 3.9 2.7 0 6.1-1.3 8.8-3.1l2.1 6.6c-5 2.8-9.6 3.9-12.8 3.9-8.9 0-13-3.6-13-11.5 0-11.5 6.8-21.3 18.3-21.3 6.5 0 11.8 2.5 11.8 8.9 0 5.6-5.4 10.9-15.6 10.9zm2.8-12.6c-2.7 0-4.1 2.1-4.8 5.3.3.1 1 .3 2.2.3 2.4 0 5-1.2 5-3.4-.1-1.4-.9-2.2-2.4-2.2zm45.8 1.6l-4.9 23h-10.5l4.2-19.9c.1-.7.2-1.3.2-1.8 0-1.2-.5-1.8-1.7-1.8-1.7 0-3 .8-4.3 2.9l-4.4 20.5H242l4.2-19.6c.7-3.3 1.1-5.6 1.1-7.8 0-1-.1-1.8-.2-2.8l9.3-1.7c.2 1 .5 2.1.5 3.4 2.4-2.1 6-3.4 9.5-3.4 6.2 0 7.9 2.8 7.9 6.2-.1 1-.3 1.9-.4 2.8z" fill="#063D85"/><path fill="#DA261B" d="M282.9 52.3c-3.4 0-6.2-2.8-6.2-6.2 0-3.3 2.8-6.1 6.2-6.1 3.4 0 6.2 2.8 6.2 6.1 0 3.4-2.8 6.2-6.2 6.2zm32.5-23c-.9-1.3-2.5-2.3-3.9-2.3-2.4 0-4.2 1.9-5.6 8.3-.5 2.4-.8 4.3-.8 5.7 0 2.2.8 3.2 2.7 3.2 2.4 0 4.5-1.1 6.3-2.8l3.1 6.2c-4 3.3-8.3 4.4-12.1 4.4-7.1 0-11.3-3.7-11.3-10.9 0-1.6.2-3.3.6-5.1 2.2-10.6 8.6-16.7 17.8-16.7 4.5 0 6.9 1.1 9.4 3.7l-6.2 6.3zM331.7 52c-7.4 0-11.5-4-11.5-11.2 0-8 4.3-21.5 19.1-21.5 6.5 0 11.5 3.2 11.5 11-.1 8.2-4.6 21.7-19.1 21.7zm5.6-25.4c-4.3 0-6.2 13-6.2 15.2 0 1.9.7 2.8 2.4 2.8 4.3 0 6.2-13.1 6.2-15.2-.1-2.1-.9-2.8-2.4-2.8zm62.2 1.6l-4.9 23h-10.1l4.2-19.9c.2-.8.2-1.4.2-1.9 0-1.1-.4-1.6-1.6-1.6-1.7 0-2.8.9-4.1 2.9l-4.3 20.5h-9.8l4.2-19.9c.2-.8.3-1.6.3-2.1 0-1-.4-1.4-1.5-1.4-1.7 0-2.8.8-4.1 2.9l-4.4 20.5h-10.2l4.2-19.6c.7-3.3 1.1-5.6 1.1-7.8 0-1-.1-1.8-.2-2.8l9.3-1.7c.2.8.4 2.2.4 3.3 2.1-1.8 5.3-3.3 9.1-3.3 3.5 0 5.4 1.5 6.2 3.4 2.4-2.2 5.7-3.4 9.2-3.4 5.8 0 7.4 2.5 7.4 5.6-.2 1.1-.3 2.2-.6 3.3z"/><path d="M45.8 11.5L64 5.4C58.8 2 52.5 0 45.8 0c-6.7 0-13 2-18.3 5.4l18.3 6.1zm-11.5 32l-17.7 6.4c4.4 7.8 11.9 13.7 20.8 16l-3.1-22.4zm22.9 0L54 65.9c8.9-2.3 16.4-8.2 20.8-16l-17.6-6.4zm-11.4-4.1l-8.3 3v.1l4.6 32.8c.3 1.7 2.1 2.6 3.7 2.6s3.4-.9 3.7-2.6l4.6-32.8v-.1l-8.3-3zM9.2 11.9l4 9.5 27.2-8.3-27-9-4.2 7.8" fill="#063D85"/><path fill="#DA261B" d="M51.2 13.1l27.2 8.3 4-9.5-4.2-7.8-27 9"/><path fill="#063D85" d="M47.4 36.5L83 49.3l8.6-8.1-6.9-14.5-37.3-11.3v21.1"/><path fill="#DA261B" d="M0 41.2l8.5 8.1 35.7-12.8V15.4L6.9 26.7 0 41.2"/><path fill="#063D85" d="M412.3 10.2h-1.7l-1.2 5.6h-1.2l1.2-5.6h-1.7l.2-1h4.8l-.4 1zm6.9 5.6H418l.6-4.5v-.1l-.1.1-2.3 4.5h-1l-.4-4.3v-.4c0 .1-.1.3-.1.4l-1.2 4.3h-1.2l2-6.6h1.5l.3 4v.5c.1-.2.1-.3.2-.5l2-4h1.5l-.6 6.6z"/></svg>