<svg viewBox="0 0 124 27" xmlns="http://www.w3.org/2000/svg"><g fill-rule="evenodd"><path d="M9.4 26.3C4 26.3 0 22.1 0 16.9s4-9.5 9.4-9.5c3.4 0 5.6 1.3 7.3 3.1l-2.6 2.8C12.8 12 11.5 11 9.4 11c-3 0-5.2 2.6-5.2 5.8 0 3.3 2.2 5.9 5.4 5.9 2 0 3.4-.9 4.7-2.3l2.5 2.5c-1.7 2-3.8 3.4-7.4 3.4z"/><path d="M30.1 25.9v-2.2c-1.2 1.5-3.1 2.6-5.9 2.6-3.4 0-6.5-2-6.5-5.6v-.1c0-3.9 3.1-5.8 7.4-5.8 2.2 0 3.6.3 5 .8v-.4c0-2.5-1.6-3.9-4.5-3.9-2 0-3.5.4-5.2 1.1L19.3 9c2-.9 4-1.5 6.9-1.5 5.4 0 8 2.8 8 7.7V26h-4.1v-.1zm.1-7.7c-1.1-.4-2.5-.7-4.2-.7-2.6 0-4.2 1.1-4.2 2.9v.1c0 1.7 1.5 2.7 3.5 2.7 2.8 0 4.8-1.5 4.8-3.8v-1.2h.1z" fill-rule="nonzero"/><path d="M42.3 20.2c0 1.6.8 2.3 2.2 2.3.9 0 1.8-.2 2.6-.6v3.4c-1 .6-2.2.9-3.7.9-3.1 0-5.2-1.3-5.2-5.3v-9.6h-2.3V7.7h2.3v-5h4.2v5h4.9v3.6h-4.9v8.9h-.1z"/><path d="M60.7 25.9v-2.2c-1.2 1.5-3.1 2.6-5.9 2.6-3.4 0-6.5-2-6.5-5.6v-.1c0-3.9 3.1-5.8 7.4-5.8 2.2 0 3.6.3 5 .8v-.4c0-2.5-1.6-3.9-4.5-3.9-2 0-3.5.4-5.2 1.1L50 9c2-.9 4-1.5 6.9-1.5 5.4 0 8 2.8 8 7.7V26h-4.2v-.1zm.1-7.7c-1.1-.4-2.5-.7-4.2-.7-2.6 0-4.2 1.1-4.2 2.9v.1c0 1.7 1.5 2.7 3.5 2.7 2.8 0 4.8-1.5 4.8-3.8v-1.2h.1z" fill-rule="nonzero"/><path d="M86.2 22.4l4.7-14.3h2.8L87.4 26h-2.3l-4.8-14-4.8 14h-2.3L67 8.1h2.8l4.7 14.3 4.8-14.3h2.2l4.7 14.3zm10.2 3.5V8.1H99v17.8zm22.2 0h-3.2l-6.4-8.3-3.6 3.7v4.6h-2.7V.8h2.7v17.3l9.6-10h3.3l-7.5 7.6 7.8 10.2zm2.1 0V8.1h2.6v17.8z"/><circle cx="97.7" cy="2.8" r="1.7"/><circle cx="122" cy="2.8" r="1.7"/></g></svg>