<svg viewBox="0 0 267 43" xmlns="http://www.w3.org/2000/svg"><g fill="none" fill-rule="evenodd"><path stroke="#000" stroke-width="2.268" fill="#000" fill-rule="nonzero" d="M18.19 32.661l-3.733.34-7.68-3.975-4.221-8.763v-2.716L6.124 7.543l5.047-3.364 7.02-.59v5.063H7.836l.143 6.445h10.21v6.207H8.243l-.264 6.48h10.21z"/><path d="M34.035 20.903c-1.31 7.337-7.724 12.907-15.439 12.907-8.662 0-15.684-7.022-15.684-15.684 0-8.662 7.022-15.684 15.684-15.684 7.737 0 14.165 5.602 15.45 12.97l.01.058" stroke="#000" stroke-width="3.969"/><path fill="#000" fill-rule="nonzero" d="M35.602 13.536l.552 2.294h-4.047zm-.007 9.312l.553-2.294H32.1zM67.63 33.941H47.053V2.703H67.63v5.44H53.152v7.327H65.48v5.44H53.15v7.591h14.48v5.44zm21.69 0h-5.572v-1.974c-1.536 1.536-2.983 2.194-5.616 2.194-2.589 0-4.475-.658-5.835-2.018-1.229-1.273-1.887-3.115-1.887-5.134 0-3.641 2.501-6.625 7.81-6.625h5.396v-1.14c0-2.501-1.228-3.598-4.255-3.598-2.194 0-3.203.526-4.388 1.887l-3.641-3.554c2.237-2.457 4.43-3.16 8.248-3.16 6.406 0 9.74 2.721 9.74 8.074V33.94zm-5.704-8.423v-1.229h-4.519c-2.062 0-3.203.965-3.203 2.589 0 1.58 1.053 2.632 3.291 2.632 1.58 0 2.589-.131 3.598-1.097.614-.57.833-1.491.833-2.895zm27.92 1.228c0 5.046-4.3 7.459-9.696 7.459-3.598 0-6.844-.395-9.74-3.29l3.73-3.73c1.886 1.886 4.343 2.15 6.098 2.15 1.974 0 4.036-.658 4.036-2.37 0-1.14-.614-1.93-2.413-2.105l-3.598-.351c-4.124-.395-6.669-2.194-6.669-6.406 0-4.739 4.168-7.283 8.82-7.283 3.553 0 6.536.614 8.73 2.676l-3.51 3.554c-1.316-1.185-3.334-1.536-5.309-1.536-2.281 0-3.246 1.053-3.246 2.194 0 .834.35 1.799 2.369 1.974l3.598.351c4.519.44 6.8 2.852 6.8 6.713zm21.953-15.663l-9.784 26.544c-.483 1.272-1.01 2.238-1.711 2.94-1.316 1.316-3.027 1.754-4.914 1.754h-2.238v-5.133h1.317c1.623 0 2.281-.395 2.851-2.062l.966-2.808-7.81-21.235h6.01l4.74 14.128 4.562-14.128h6.011zm25.375 7.108c0 4.694.351 9.257-3.159 12.767-2.062 2.062-5.002 2.983-8.248 2.983H136.18V2.703h11.276c3.246 0 6.186.921 8.248 2.983 3.51 3.51 3.159 7.81 3.159 12.505zm-6.098 0c0-4.739-.176-6.713-1.317-8.117-1.053-1.272-2.457-1.93-4.563-1.93h-4.606V28.5h4.606c2.106 0 3.51-.658 4.563-1.93 1.141-1.404 1.317-3.642 1.317-8.38zm27.48-5.221l-4.3 4.343c-.877-.877-1.622-1.36-3.026-1.36-1.755 0-3.686 1.316-3.686 4.212v13.776h-5.704V11.083h5.572v2.194c1.097-1.317 3.291-2.457 5.748-2.457 2.238 0 3.817.57 5.397 2.15zm7.826 20.971h-5.704V11.083h5.704v22.858zm.044-26.763h-5.836v-4.65h5.836v4.65zm23.444 3.905l-8.38 22.858h-4.475l-8.424-22.858h6.011l4.65 14.128 4.608-14.128h6.01zm7.957 22.858h-5.703V11.083h5.703v22.858zm.044-26.763h-5.835v-4.65h5.835v4.65zm24.19 26.763h-5.703v-13.82c0-3.115-1.974-4.168-3.773-4.168-1.799 0-3.817 1.053-3.817 4.168v13.82h-5.704V11.083h5.572v2.106c1.492-1.58 3.598-2.37 5.704-2.37 2.281 0 4.124.747 5.396 2.019 1.843 1.843 2.326 3.993 2.326 6.493v14.61zm22.963-.833c0 5.484-3.905 9.477-10.048 9.477-3.51 0-5.923-.702-8.292-2.984l3.554-3.597c1.272 1.228 2.545 1.755 4.475 1.755 3.422 0 4.607-2.414 4.607-4.739v-2.325c-1.492 1.667-3.203 2.281-5.44 2.281-2.238 0-4.168-.746-5.44-2.018-2.15-2.15-2.326-5.09-2.326-9.082 0-3.992.175-6.888 2.325-9.038 1.273-1.272 3.247-2.018 5.484-2.018 2.414 0 3.993.658 5.573 2.413v-2.15h5.528v22.025zm-5.704-11.232c0-3.027-.395-5.923-3.773-5.923s-3.73 2.896-3.73 5.923.352 5.967 3.73 5.967 3.773-2.94 3.773-5.967z"/></g></svg>