<svg viewBox="0 0 154 69" xmlns="http://www.w3.org/2000/svg"><g fill-rule="evenodd"><path d="M48.246 29.923L44 30.445l.64 5.216 4.213-.517c1.45-.178 2.373-1.35 2.197-2.787-.186-1.509-1.443-2.6-2.804-2.434"/><path d="M141.39 36.186a1.192 1.192 0 0 1-.98.82l-6.977.857a1.18 1.18 0 0 1-1.026-.394l-6.14-7.101-.82 1.057.748 6.093c.082.67-.38 1.28-1.032 1.36l-4.925.605c-.65.08-1.248-.4-1.33-1.07l-2.858-23.275c-.082-.67.38-1.282 1.032-1.362l4.925-.604c.65-.08 1.248.4 1.33 1.071l.768 6.257 5.544-7.873a1.18 1.18 0 0 1 .817-.494l6.25-.768a1.19 1.19 0 0 1 1.18.61c.235.42.21.941-.065 1.33l-7.024 10.16 10.3 11.471c.312.327.423.818.283 1.25zm-25.73 2.626c.082.67-.376 1.28-1.023 1.36l-4.88.598a1.17 1.17 0 0 1-.993-.367l-9.387-10.05 1.265 10.303c.082.67-.376 1.28-1.022 1.359l-4.88.6c-.647.079-1.239-.402-1.321-1.072L90.56 18.267c-.082-.67.376-1.28 1.022-1.36l4.88-.6a1.17 1.17 0 0 1 1.01.386l9.426 10.487-1.32-10.756c-.083-.67.376-1.281 1.022-1.36l4.88-.6c.647-.08 1.238.402 1.32 1.073l2.858 23.275zm-25.086 3.331c-.003.046-.001.092-.01.137-.011.056-.034.109-.053.164-.013.04-.02.08-.038.12l-.003.003-.001.004c-.029.062-.07.115-.108.17-.019.028-.033.06-.054.086-.044.053-.098.097-.15.142-.024.02-.044.046-.069.065-.055.04-.117.069-.18.1-.028.013-.053.033-.082.045a1.22 1.22 0 0 1-.297.075l-5.628.691a1.206 1.206 0 0 1-1.18-.583L76.03 31.5l-3.92 13.164c-.138.46-.533.794-1.004.852l-5.63.691a1.212 1.212 0 0 1-.304-.001c-.031-.005-.06-.018-.091-.024-.068-.015-.136-.028-.2-.053-.029-.012-.054-.033-.082-.047-.062-.031-.124-.06-.18-.101-.027-.021-.05-.05-.075-.073-.049-.044-.101-.084-.144-.136l-.001-.004-.004-.003c-.026-.034-.044-.072-.067-.107-.031-.048-.066-.094-.09-.146-.019-.04-.028-.085-.043-.127-.017-.052-.039-.102-.05-.155-.008-.045-.007-.09-.01-.135-.005-.054-.014-.107-.011-.162.001-.043.013-.085.02-.127.008-.055.01-.11.027-.163l7.09-24.479v-.002a1.205 1.205 0 0 1 1.009-.864l4.158-.511c.477-.059.943.175 1.187.595v.002L90.42 41.42c.028.049.045.1.065.151.017.04.039.078.051.12.015.051.02.104.028.158.007.045.02.09.022.135.003.053-.006.106-.01.16zm-29.28 4.146a.809.809 0 0 1-.657.512l-6.676.82a.813.813 0 0 1-.731-.3l-4.097-5.17-3.148.387.635 5.17a.81.81 0 0 1-.704.901l-5.415.665a.81.81 0 0 1-.901-.704l-2.943-23.964a.81.81 0 0 1 .704-.902l11.281-1.385c4.9-.601 9.29 3.426 9.996 9.168.392 3.19-.569 6.013-2.706 7.976l5.217 6.007c.197.225.252.54.145.82zM34.063 30.33a1.21 1.21 0 0 1-1.043 1.356l-11.8 1.45.35 2.85 8.6-1.055a1.211 1.211 0 0 1 1.34 1.063l.612 4.986a1.21 1.21 0 0 1-1.043 1.356l-8.6 1.056.822 6.697a1.211 1.211 0 0 1-1.043 1.356l-4.967.61a1.211 1.211 0 0 1-1.34-1.063L13.11 27.84a1.212 1.212 0 0 1 1.043-1.357L32.11 24.28a1.21 1.21 0 0 1 1.34 1.064l.613 4.986zM146.339.417L2.323 18.1a2.176 2.176 0 0 0-1.895 2.425l4.978 40.547a2.176 2.176 0 0 0 2.425 1.894l63.264-7.768 6.826 12.037a2.174 2.174 0 0 0 2.135 1.089l.022-.003a2.174 2.174 0 0 0 1.819-1.533l4.032-13.411 65.919-8.094a2.175 2.175 0 0 0 1.893-2.424L148.763 2.31a2.175 2.175 0 0 0-2.424-1.894z"/></g></svg>