<svg xmlns="http://www.w3.org/2000/svg" viewBox="0 0 420 75"><path d="M101.6 62.9l-.8 4c-.3 1.2-.1 1.7.4 2.3l-1.8 1.3c-.5-.4-.8-1-.8-1.7-.7 1-1.7 1.6-3 1.6-1.6 0-2.6-1.1-2.6-3.2 0-2.2.8-4.4 2.1-5.8 1.1-1.1 2.4-1.6 4-1.6 1.2 0 2.3.2 3.1.8-.1.5-.4 1.6-.6 2.3zm-2.8-1.4c-.9 0-1.5.2-2.3 1.1-.9 1.1-1.3 3-1.3 4.5 0 1.1.4 1.5 1.1 1.5.9 0 1.9-.9 2.4-1.9l1.1-5c-.2-.1-.6-.2-1-.2zm18 1.3c1.5.3 2.2 1.4 2.2 2.8 0 1-.5 2.3-1.5 3.2-1 1-2.1 1.3-4.4 1.3h-4.4l3-13.8h4.3c2.6 0 3.9 1.1 3.9 3-.1 1.5-1 3-3.1 3.5zm-2.5 1.1h-2l-.9 4.3h2.2c.8 0 1.4-.2 1.9-.5.6-.4 1.1-1.3 1.1-2.1-.1-1.1-.6-1.7-2.3-1.7zm1.1-5.6h-1.9l-.8 3.8h2c.9 0 1.4-.2 1.8-.5.5-.4.9-1 .9-1.8-.1-1-.6-1.5-2-1.5zm13.8 6.3c-.8.8-2.2 1.3-4.3 1.3-.6 0-1-.1-1.2-.1 0 .2-.1.7-.1 1.1 0 1.3.7 1.9 1.8 1.9s1.9-.4 2.9-1.1l.7 1.4c-1.2 1-2.4 1.4-4.1 1.4-2.2 0-3.6-1.3-3.6-3.7 0-2 .9-4.2 2.3-5.6 1-1 2.1-1.4 3.4-1.4 2 0 3.2.9 3.2 2.7-.1.8-.5 1.5-1 2.1zm-2.6-3.2c-1.1 0-2.1.9-2.6 2.8.1 0 .5.1.9.1 1.2 0 2.1-.2 2.5-.7.3-.3.4-.6.4-1 0-.6-.3-1.2-1.2-1.2zm14.1 1.5l-1.5 7.3H137l1.4-6.7c.1-.4.1-.8.1-1 0-.6-.3-.8-.8-.8-.7 0-1.7.5-2.8 1.9l-1.4 6.6h-2.2l1.5-7c.2-1.2.3-1.9 0-2.6l2-.8c.2.5.3 1.2.2 1.9 1-1.2 2.2-1.8 3.6-1.8 1.3 0 2 .8 2 2 .2.3.2.7.1 1zm18.2 7.3h-2.7l-.1-6.5c0-1.9.1-3.5.2-4.2-.2.5-.9 2.6-1.6 4.2l-2.8 6.6h-2.7l-.3-13.9h2.4V63c0 2.2-.2 3.9-.2 4.5.3-.8.9-2.6 1.7-4.3l2.9-6.8h2.5v7c0 1.5-.1 3.6-.1 4 .2-.7 1.1-2.9 1.7-4.5l2.8-6.5h2.4l-6.1 13.8zm8.7.2c-2.2 0-3.5-1.3-3.5-3.6 0-3.9 2.4-7 5.8-7 2.3 0 3.6 1.3 3.6 3.6-.1 3.7-2.1 7-5.9 7zm1.9-8.9c-2 0-3 3.2-3 5.5 0 1.2.6 1.8 1.6 1.8 2 0 3-3 3-5.5-.1-1.4-.7-1.8-1.6-1.8zm10.2-2.8l-1.7 8.2c-.2.8-.2 1.2-.2 1.4 0 .4.2.5.5.5h.3l.1 1.3c-.5.2-1 .3-1.5.3-1.2 0-1.8-.6-1.8-1.6 0-.3.1-.9.2-1.4l1.8-8.4c.3-1.3.4-2.3.2-3l2.3-.8c.1.7.1 2.2-.2 3.5zm9.8 8c-.5 2.1-.4 2.8-.1 3.3l-1.9.4c-.3-.3-.4-.8-.4-1.5-.8 1-1.8 1.5-3 1.5-2 0-3-1.2-3-3.5 0-2 .8-4.2 2.2-5.6 1-.9 2.2-1.4 3.4-1.4.9 0 1.6.1 1.9.3 0-.1.2-1 .3-1.4l.7-3.4 2.1.4-2.2 10.9zm-2.8-5c-.6 0-1.4.3-1.8.9-.8 1-1.4 3-1.4 4.3 0 1.1.4 1.7 1.2 1.7.8 0 1.9-.7 2.6-1.8l1-4.8c-.4-.2-.9-.3-1.6-.3zm12.3.3c-.2-.1-.4-.2-.7-.2-.7 0-1.5.5-2.4 1.8l-1.4 6.5h-2.2l1.4-6.8c.3-1.4.3-2.1.1-2.8l2-.8c.2.5.3 1.3.2 2 .9-1.2 2-1.9 3-1.9.4 0 .5 0 .8.2l-.8 2zm3.2 8.2H200l2.1-10 2.3-.3-2.2 10.3zm1.6-11.6c-.8 0-1.5-.7-1.5-1.5s.7-1.5 1.5-1.5 1.4.7 1.4 1.5c.1.8-.5 1.5-1.4 1.5zm11.2 4.3l-1.5 7.3h-2.2l1.4-6.7c.1-.4.1-.8.1-1 0-.6-.3-.8-.8-.8-.7 0-1.7.5-2.8 1.9l-1.4 6.6h-2.2l1.5-7c.2-1.2.3-1.9 0-2.6l2-.8c.2.5.3 1.2.2 1.9 1-1.2 2.2-1.8 3.6-1.8 1.3 0 2 .8 2 2 .2.3.2.7.1 1zm11.5-.6l-1.1 5c-.3 1.5-.5 2.7-.7 3.4-.6 2.8-2.7 3.8-5.3 3.8-1.3 0-2.5-.3-3.5-.9l.8-1.6c.9.5 1.8.8 3 .8 1.7 0 2.6-.6 2.9-2.1.1-.2.3-1.3.4-1.5-.8.9-1.7 1.2-2.8 1.2-2 0-3-1.2-3-3.4 0-2.1.9-4.4 2.3-5.7 1-.9 2.3-1.5 3.8-1.5 1.6 0 2.6.2 3.7.8-.1.1-.3 1-.5 1.7zm-3.4-.7c-.7 0-1.6.3-2.1.9-.8 1-1.5 3-1.5 4.4 0 1.2.5 1.8 1.3 1.8.9 0 1.9-.7 2.5-1.8l1.1-5c-.3-.2-.7-.3-1.3-.3zm12.5 8.6h-2.2l2.1-10 2.3-.3-2.2 10.3zm1.7-11.6c-.8 0-1.5-.7-1.5-1.5s.7-1.5 1.5-1.5 1.4.7 1.4 1.5c.1.8-.6 1.5-1.4 1.5zm10.5 8.1c-.5 2.1-.4 2.8-.1 3.3l-1.9.4c-.3-.3-.4-.8-.4-1.5-.8 1-1.8 1.5-3 1.5-2 0-3-1.2-3-3.5 0-2 .8-4.2 2.2-5.6 1-.9 2.2-1.4 3.4-1.4.9 0 1.6.1 1.9.3 0-.1.2-1 .3-1.4l.7-3.4 2.1.4-2.2 10.9zm-2.8-5c-.6 0-1.4.3-1.8.9-.8 1-1.4 3-1.4 4.3 0 1.1.4 1.7 1.2 1.7.8 0 1.9-.7 2.6-1.8l1-4.8c-.5-.2-.9-.3-1.6-.3zm13.9 2.9c-.8.8-2.2 1.3-4.3 1.3-.6 0-1-.1-1.2-.1 0 .2-.1.7-.1 1.1 0 1.3.7 1.9 1.8 1.9s1.9-.4 2.9-1.1l.7 1.4c-1.2 1-2.4 1.4-4.1 1.4-2.2 0-3.6-1.3-3.6-3.7 0-2 .9-4.2 2.3-5.6 1-1 2.1-1.4 3.4-1.4 2 0 3.2.9 3.2 2.7-.1.8-.4 1.5-1 2.1zm-2.6-3.2c-1.1 0-2.1.9-2.6 2.8.1 0 .5.1.9.1 1.2 0 2.1-.2 2.5-.7.3-.3.4-.6.4-1 .1-.6-.3-1.2-1.2-1.2zm13.4 1.5l-.8 4c-.3 1.2-.1 1.7.4 2.3l-1.8 1.3c-.5-.4-.8-1-.8-1.7-.7 1-1.7 1.6-3 1.6-1.6 0-2.6-1.1-2.6-3.2 0-2.2.8-4.4 2.1-5.8 1.1-1.1 2.4-1.6 4-1.6 1.2 0 2.3.2 3.1.8-.2.5-.5 1.6-.6 2.3zm-2.8-1.4c-.9 0-1.5.2-2.3 1.1-.9 1.1-1.3 3-1.3 4.5 0 1.1.4 1.5 1.1 1.5.9 0 1.9-.9 2.4-1.9l1.1-5c-.3-.1-.7-.2-1-.2zM123.2 17.8c-1.6-1.7-4.5-2.6-7.3-2.6-8.5 0-10.3 13.5-10.3 17.2 0 4.1 1.6 6 5 6 1.2 0 2.5-.1 3.6-.5l1.2-5.9h-4.6l.5-7.6h15.3l-3.9 18.3c-4.8 2.6-9.5 3.7-14.3 3.7-12.1 0-13.9-9.3-13.9-13.1 0-7.3 4.5-25.7 22.4-25.7 5.4 0 9.6 1.6 12.6 4.7l-6.3 5.5zm32.9 8.7l-2.1 10c-.2.9-.2 2.9 1.1 4.2l-7.6 6.1c-1.1-.6-1.9-2.3-2.1-3.3-1.2 1.3-4 3.1-7.2 3.1-5.7 0-8-3.6-8-9.5s2.4-12.1 6-15.7c3.2-3.2 6.6-4.2 11.5-4.2 3.8 0 8.6.6 10.6 1.7-.9 1.9-1.7 5.2-2.2 7.6zm-9.9-2.4c-.7 0-2-.1-3.4 1.5-2 2.3-3.2 7.8-3.2 11.2 0 1.9.5 2.7 1.8 2.7 1.1 0 3.1-1.9 3.3-2.9l2.6-12.2c-.3-.1-.8-.3-1.1-.3zm35.9 1.4c-2.2-1.2-4.6-1.9-6.5-1.9-.6 0-2.9.2-2.8 2.2 0 .8.6 1.3 3 1.9l2.5.6c3.6.9 5.8 2.6 5.8 6.7 0 5.2-4.8 11.3-14.8 11.3-4 0-8.1-1.3-11.6-3.4l4.3-6.2c1.7 1.3 5.3 2.9 8.5 2.9 1.6 0 3.4-.8 3.4-2.4 0-1.3-.9-1.7-3.8-2.4l-2.3-.5c-3.7-.9-5.6-3.2-5.6-6.8 0-5.2 4.6-10.4 13.6-10.4 3.9 0 6.9.8 10.5 2.5l-4.2 5.9zM203 13.1l-4.4 20.6c-.4 2.1-.7 3.5-.7 4.5 0 1.3.5 1.7 1.7 1.7.3 0 .6-.1 1-.2l.3 5.8c-1.3.5-3.7.9-6.2.9-5.3 0-6.7-1.8-6.7-4.7 0-1.4.3-3.1.7-4.9l4-19c.6-3.1 1.6-6.8 1.5-10.1l9.7-1.6v.6c-.1 1.5-.4 3.9-.9 6.4zm10.3 32.6h-9.4l5.8-27.4 9.6-.9-6 28.3zm2.5-29.6c-2.9 0-5.3-2.4-5.3-5.3s2.5-5.3 5.5-5.3 5.3 2.4 5.3 5.3c-.1 3-2.5 5.3-5.5 5.3zm24.1 10c-.8-1.1-2.2-2-3.5-2-2.2 0-3.8 1.7-5 7.4-.4 2.2-.8 3.9-.8 5.1 0 2 .7 2.9 2.4 2.9 2.1 0 4-1 5.6-2.5l2.8 5.5c-3.6 3-7.4 3.9-10.8 3.9-6.4 0-10.1-3.3-10.1-9.7 0-1.4.2-2.9.5-4.6 2-9.4 7.7-14.9 15.9-14.9 4 0 6.1 1 8.4 3.3l-5.4 5.6zm32.3-.8l-4.3 20.4h-9.4l3.9-18.3c.2-.8.3-1.3.3-1.8 0-.9-.4-1.1-1.7-1.1-1.2 0-2.7.9-3.7 1.7l-4.1 19.4h-9.4l5.9-27.8c1.4-6.5 1.5-8.5 1.5-10.1l9.8-1.6c.1 1.3-.4 4.5-.9 6.8l-.9 4.1c-.2.6-.4 1.7-.5 2.3 1.7-1.3 3.9-2.1 6.9-2.1 3.7 0 6.9 1 6.9 5.3.1.8-.1 1.8-.3 2.8zm20.1-1.3h-3.9L286 35.2c-.3 1.2-.4 2.1-.4 2.8 0 1.6.7 1.9 2.3 1.9.9 0 1.8-.2 2.5-.5l-.1 5.4c-2.6 1.1-5.1 1.6-6.9 1.6-5 0-7.9-1-7.9-4.9 0-.7.1-1.5.3-2.4L279 24h-2.3l1.3-6.1h2.3c.6-2.7 1.2-5.3 1.8-6.9l9.6-1.4c-.9 3-1.5 5.7-2 8.3h5.1l-2.5 6.1z" fill="#046"/><path fill="#C50440" d="M299.9 46.7c-3 0-5.5-2.5-5.5-5.5s2.5-5.4 5.5-5.4 5.5 2.5 5.5 5.4c0 3-2.5 5.5-5.5 5.5zm28.9-20.6c-.8-1.1-2.2-2-3.5-2-2.2 0-3.8 1.7-5 7.4-.4 2.2-.8 3.9-.8 5.1 0 2 .7 2.9 2.4 2.9 2.1 0 4-1 5.6-2.5l2.8 5.5c-3.6 3-7.4 3.9-10.8 3.9-6.4 0-10.1-3.3-10.1-9.7 0-1.4.2-2.9.5-4.6 2-9.4 7.7-14.9 15.9-14.9 4 0 6.1 1 8.4 3.3l-5.4 5.6zm14.5 20.3c-6.6 0-10.3-3.6-10.3-10 0-7.2 3.9-19.2 17-19.2 5.8 0 10.3 2.9 10.3 9.9 0 7.2-4 19.3-17 19.3zm5-22.7c-3.9 0-5.5 11.6-5.5 13.6 0 1.7.6 2.5 2.1 2.5 3.9 0 5.5-11.7 5.5-13.6 0-1.8-.7-2.5-2.1-2.5zm55.5 1.5l-4.4 20.5h-9l3.8-17.8c.2-.7.2-1.3.2-1.7 0-1-.4-1.4-1.5-1.4-1.5 0-2.5.8-3.7 2.6l-3.9 18.3h-8.8l3.8-17.8c.2-.8.3-1.4.3-1.9 0-.9-.3-1.2-1.3-1.2-1.5 0-2.5.8-3.7 2.6l-3.9 18.3h-9.1l3.7-17.5c.6-2.9 1-5 1-6.9 0-.9-.1-1.6-.2-2.5l8.3-1.6c.2.7.3 1.9.4 3 1.8-1.6 4.7-3 8.1-3 3.1 0 4.8 1.3 5.5 3.1 2.2-1.9 5.1-3.1 8.2-3.1 5.2 0 6.6 2.2 6.6 5 0 1-.2 1.9-.4 3z"/><path d="M40.8 10.3l16.3-5.4C52.4 1.8 46.8 0 40.8 0S29.2 1.8 24.5 4.8l16.3 5.5zM30.6 38.8l-15.8 5.7c3.9 7 10.6 12.2 18.6 14.3l-2.8-20zm20.4 0l-2.8 19.9c8-2 14.6-7.3 18.6-14.3L51 38.8zm-10.2-3.7l-7.4 2.7v.1l4.1 29.2c.2 1.5 1.9 2.3 3.3 2.3s3-.8 3.3-2.3l4.1-29.2v-.1l-7.4-2.7zM8.2 10.6l3.5 8.4L36 11.7l-24.1-8-3.7 6.9" fill="#046"/><path fill="#C50440" d="M45.6 11.7L69.9 19l3.5-8.4-3.7-6.9-24.1 8"/><path fill="#046" d="M42.3 32.5L74 43.9l7.7-7.2-6.2-12.9-33.2-10v18.7"/><path fill="#C50440" d="M0 36.7l7.6 7.2 31.8-11.4V13.8l-33.3 10L0 36.7"/><path fill="#046" d="M413.2 9h-1.6l-1 5h-1.1l1-5H409l.2-.9h4.3l-.3.9zm6.1 5.1h-1.1l.5-4V10l-.1.1-2.1 4h-.9l-.3-3.9v-.3c0 .1-.1.2-.1.3l-1.1 3.9H413l1.8-5.9h1.4l.3 3.6v.4c.1-.1.1-.3.2-.4l1.8-3.6h1.4l-.6 5.9z"/></svg>