<svg viewBox="0 0 184.728 27.87"><path d="M46.991 27.385H42V3.173h4.991v9.399h8.828V3.173h4.991v24.211h-4.991v-9.449h-8.828v9.45zm16.377-9.313c0-5.997 3.129-9.759 8.94-9.759 6.109 0 8.865 3.464 8.865 9.759 0 5.997-3.054 9.759-8.865 9.759-6.109.001-8.94-3.464-8.94-9.759zm8.94-5.177c-3.352 0-4.06 2.011-4.06 5.177 0 3.166.708 5.178 4.06 5.178s3.986-2.011 3.986-5.178c-.001-3.166-.634-5.177-3.986-5.177zM84.083 2.92h4.842v5.84h6.332v4.582h-6.332v7.375c0 1.863.931 2.496 2.347 2.496 1.49 0 2.98-.335 3.911-.782l.745 4.582c-1.304.522-2.868.782-4.656.782-4.135 0-7.189-1.676-7.189-7.114V2.92zm29.875 16.94h-11.063v.186c0 1.788 1.415 3.203 4.582 3.203 1.862 0 4.321-.522 5.55-1.08l.745 4.582c-1.788.745-4.246 1.08-6.332 1.08-6.407 0-9.536-3.092-9.536-9.647 0-5.476 2.197-9.871 8.493-9.871 5.252 0 7.971 2.868 7.971 8.418 0 .634-.075 2.087-.41 3.129zm-11.063-3.948h6.854v-.186c0-2.011-1.229-3.203-3.501-3.203-2.161 0-3.353 1.08-3.353 3.203v.186zM117.799.775h4.842V20.68c0 1.937.41 2.496 1.266 2.496.298 0 .819-.075 1.118-.223l.708 4.432c-.596.223-1.415.372-2.384.372-3.166 0-5.55-1.751-5.55-5.997V.775zm10.54 21.506c1.229.522 3.762.969 5.885.969 1.676 0 3.017-.372 3.017-1.267 0-2.905-9.498-.335-9.498-7.71 0-4.619 3.613-5.96 7.971-5.96 1.937 0 4.023.522 5.401 1.117l-.745 4.731c-1.267-.671-3.539-1.267-5.289-1.267-1.378 0-2.458.335-2.458 1.155 0 2.533 9.498.484 9.498 7.561 0 4.656-3.353 6.221-8.642 6.221-2.272 0-4.47-.41-5.885-.894l.745-4.656zm27.8-13.619h4.358l.526 2.066c1.202-1.54 3.156-2.517 5.635-2.517 3.005 0 6.199 1.465 6.199 6.837v12.397h-4.846V15.8c0-2.292-1.202-2.968-3.043-2.968-2.066 0-3.944.902-3.944 4.809v9.805h-4.884V8.662zm-7.173 13.126a2.934 2.934 0 0 1 2.93 2.93 2.934 2.934 0 0 1-2.93 2.93 2.933 2.933 0 0 1-2.93-2.93 2.933 2.933 0 0 1 2.93-2.93zM176.599.775h4.961v19.844c0 1.984.42 2.557 1.297 2.557.305 0 .84-.076 1.145-.229l.725 4.541c-.611.229-1.45.382-2.442.382-3.244 0-5.686-1.794-5.686-6.144V.775z"/><g fill="#ed1653"><path d="M28.41 8.443c-4.498 0-8.059 7.62-15.344 7.62-8.195 0-7.485-7.504-7.485-7.504V0L0 3.173V27.23h5.216s7.157-8.295 14.624-8.295c7.102 0 6.574 8.295 6.574 8.295h5.728V10.824s-1.27-2.381-3.732-2.381z"/><circle cx="12.321" cy="8.683" r="4.29"/></g></svg>