<svg viewBox="0 0 357 60" xmlns="http://www.w3.org/2000/svg" xmlns:xlink="http://www.w3.org/1999/xlink"><defs><path id="a" d="M.06.559h356.042V59.94H.06"/><path id="c" d="M.06.559h356.042V59.94H.06"/></defs><g fill="none" fill-rule="evenodd"><path d="M81.758 49.707c-.721 0-1.233.16-1.858.896-.719.866-1.055 2.434-1.055 3.571 0 .88.288 1.217.88 1.217.736 0 1.552-.737 1.92-1.553l.865-3.971c-.16-.095-.481-.16-.752-.16zm2.24 1.073l-.656 3.202c-.207.976-.112 1.392.289 1.825l-1.442 1.072c-.431-.353-.607-.801-.607-1.329-.576.784-1.393 1.249-2.434 1.249-1.263 0-2.113-.849-2.113-2.577 0-1.793.673-3.522 1.713-4.595.865-.88 1.922-1.312 3.218-1.312.928 0 1.872.193 2.512.609a19.63 19.63 0 0 0-.48 1.856zm10.976-3.681h-1.537l-.625 3.008h1.602c.688 0 1.104-.126 1.424-.383.4-.321.688-.8.688-1.409 0-.8-.383-1.216-1.552-1.216zm-.849 4.53h-1.633l-.736 3.473h1.762c.656 0 1.136-.176 1.503-.432.481-.336.849-1.025.849-1.713 0-.881-.433-1.328-1.745-1.328zm2.001-.881c1.169.225 1.761 1.121 1.761 2.225 0 .816-.401 1.825-1.201 2.577-.833.768-1.712 1.057-3.553 1.057h-3.522l2.369-11.061h3.457c2.098 0 3.106.913 3.106 2.401 0 1.201-.752 2.336-2.417 2.801zm7.791-1.121c-.912 0-1.712.721-2.064 2.242.095 0 .432.047.704.047.976 0 1.648-.143 2.033-.527.207-.209.336-.465.336-.801 0-.544-.273-.961-1.009-.961zm2.065 2.529c-.672.656-1.777 1.026-3.441 1.026-.449 0-.833-.065-.977-.065-.032.16-.095.592-.095.848 0 1.009.592 1.489 1.472 1.489.848 0 1.537-.288 2.288-.88l.544 1.088c-.976.784-1.936 1.153-3.296 1.153-1.729 0-2.881-1.042-2.881-2.961 0-1.618.704-3.362 1.808-4.434.801-.769 1.697-1.105 2.737-1.105 1.569 0 2.561.72 2.561 2.162 0 .656-.256 1.232-.72 1.679zm9.233-1.344l-1.233 5.795h-1.746l1.137-5.363c.08-.351.112-.607.112-.784 0-.464-.208-.64-.639-.64-.576 0-1.377.4-2.226 1.504l-1.12 5.283h-1.729l1.184-5.603c.193-.944.209-1.488.033-2.08l1.632-.673c.16.368.257.96.145 1.521.768-.928 1.792-1.441 2.913-1.441 1.008 0 1.617.624 1.617 1.601 0 .272-.017.608-.08.88m14.496 5.827h-2.129l-.049-5.187c-.015-1.488.113-2.785.16-3.393-.143.384-.719 2.048-1.263 3.33l-2.225 5.25h-2.145l-.273-11.093h1.905l.017 5.266c0 1.745-.129 3.106-.16 3.569.24-.672.736-2.08 1.328-3.441l2.353-5.394h2.016v5.587c0 1.183-.063 2.849-.111 3.169a61.43 61.43 0 0 1 1.392-3.602l2.209-5.154h1.953l-4.978 11.093m8.494-6.979c-1.601 0-2.434 2.561-2.434 4.402 0 .975.465 1.409 1.25 1.409 1.569 0 2.417-2.403 2.417-4.371 0-1.088-.512-1.44-1.233-1.44zm-1.504 7.139c-1.793 0-2.818-1.041-2.818-2.898 0-3.121 1.905-5.586 4.594-5.586 1.857 0 2.865 1.073 2.865 2.849 0 2.961-1.664 5.635-4.641 5.635zm9.647-9.364l-1.393 6.53c-.143.641-.191.945-.191 1.137 0 .289.128.432.384.432.096 0 .192 0 .272-.032l.096 1.072a3.216 3.216 0 0 1-1.184.209c-.929 0-1.409-.497-1.409-1.249 0-.24.063-.688.16-1.136l1.425-6.675c.223-1.073.288-1.857.128-2.385l1.856-.608c.129.497.065 1.696-.144 2.705m5.585 2.369c-.513 0-1.089.256-1.473.736-.656.8-1.105 2.369-1.105 3.474 0 .88.321 1.343.977 1.343.672 0 1.553-.591 2.049-1.439l.816-3.794c-.336-.224-.672-.32-1.264-.32zm2.241 3.985c-.368 1.713-.305 2.225-.08 2.609l-1.505.352c-.208-.256-.336-.656-.304-1.168-.625.769-1.457 1.185-2.385 1.185-1.617 0-2.384-.96-2.384-2.785 0-1.617.639-3.345 1.775-4.466.77-.752 1.777-1.137 2.705-1.137.721 0 1.281.112 1.553.256 0-.08.144-.817.209-1.088l.576-2.721 1.68.287-1.84 8.676zm7.567-3.682c-.16-.095-.32-.126-.559-.126-.561 0-1.186.431-1.89 1.423l-1.104 5.203h-1.745l1.153-5.411c.24-1.104.224-1.713.064-2.272l1.632-.673c.177.416.24 1.024.128 1.585.736-.929 1.633-1.521 2.418-1.521.287 0 .432.033.672.128l-.769 1.664m3.887-2.768a1.176 1.176 0 1 1 .017-2.353c.639 0 1.152.528 1.152 1.168 0 .657-.513 1.185-1.169 1.185zm-1.329 9.268h-1.793l1.697-8.003 1.841-.273-1.745 8.276z" fill="#839287"/><mask id="b" fill="#fff"><use xlink:href="#a"/></mask><path d="M174.574 50.812l-1.232 5.795h-1.746l1.136-5.363c.081-.351.113-.607.113-.784 0-.464-.208-.64-.64-.64-.576 0-1.377.4-2.226 1.504l-1.12 5.283h-1.728l1.183-5.603c.194-.944.209-1.488.034-2.08l1.631-.673c.161.368.257.96.145 1.521.769-.928 1.792-1.441 2.913-1.441 1.008 0 1.617.624 1.617 1.601 0 .272-.016.608-.08.88m6.415-1.072c-.56 0-1.249.272-1.665.752-.672.768-1.168 2.401-1.168 3.49 0 .944.384 1.409 1.057 1.409.72 0 1.504-.577 2-1.442l.865-3.985c-.257-.16-.625-.224-1.089-.224zm2.769.543l-.848 3.954c-.272 1.234-.385 2.146-.529 2.753-.512 2.274-2.16 3.01-4.257 3.01-1.04 0-1.985-.24-2.833-.721l.607-1.248c.69.416 1.442.608 2.37.608 1.361 0 2.048-.512 2.353-1.649.048-.175.24-1.04.288-1.183-.624.687-1.36.976-2.225.976-1.6 0-2.385-.93-2.385-2.754 0-1.664.688-3.537 1.808-4.546.817-.736 1.826-1.184 3.026-1.184 1.312 0 2.113.176 2.994.625-.049.143-.257.848-.369 1.359z" fill="#839287" mask="url(#b)"/><path d="M192.348 47.339c-.64 0-1.168-.528-1.168-1.169 0-.656.528-1.184 1.184-1.184.64 0 1.153.528 1.153 1.168 0 .657-.513 1.185-1.169 1.185zm-1.328 9.268h-1.793l1.697-8.003 1.84-.273-1.744 8.276zm7.457-6.803c-.512 0-1.088.256-1.473.736-.656.8-1.105 2.369-1.105 3.474 0 .88.321 1.343.977 1.343.673 0 1.553-.591 2.049-1.439l.816-3.794c-.336-.224-.673-.32-1.264-.32zm2.241 3.985c-.368 1.713-.304 2.225-.08 2.609l-1.505.352c-.208-.256-.336-.656-.305-1.168-.623.769-1.456 1.185-2.385 1.185-1.616 0-2.384-.96-2.384-2.785 0-1.617.64-3.345 1.777-4.466.768-.752 1.776-1.137 2.705-1.137.72 0 1.28.112 1.553.256 0-.08.143-.817.207-1.088l.576-2.721 1.682.287-1.841 8.676zm6.814-4.162c-.912 0-1.712.721-2.064 2.242.095 0 .432.047.704.047.976 0 1.648-.143 2.033-.527.207-.209.336-.465.336-.801 0-.544-.272-.961-1.009-.961zm2.066 2.529c-.673.656-1.778 1.026-3.442 1.026-.449 0-.833-.065-.976-.065-.033.16-.096.592-.096.848 0 1.009.592 1.489 1.473 1.489.847 0 1.536-.288 2.288-.88l.544 1.088c-.977.784-1.937 1.153-3.297 1.153-1.729 0-2.881-1.042-2.881-2.961 0-1.618.704-3.362 1.809-4.434.8-.769 1.696-1.105 2.736-1.105 1.569 0 2.561.72 2.561 2.162a2.28 2.28 0 0 1-.719 1.679zm6.367-2.449c-.721 0-1.233.16-1.858.896-.72.866-1.056 2.434-1.056 3.571 0 .88.289 1.217.881 1.217.736 0 1.552-.737 1.92-1.553l.865-3.971c-.16-.095-.481-.16-.752-.16zm2.24 1.073l-.656 3.202c-.208.976-.111 1.392.288 1.825l-1.441 1.072c-.431-.353-.608-.801-.608-1.329-.576.784-1.392 1.249-2.433 1.249-1.264 0-2.113-.849-2.113-2.577 0-1.793.672-3.522 1.713-4.595.864-.88 1.921-1.312 3.217-1.312.929 0 1.873.193 2.514.609-.145.447-.369 1.28-.481 1.856zM84.838 37.045H76.97l6.364-29.971h7.868l-6.364 29.971m28.639-16.383l-3.484 16.383h-7.481l3.009-14.191c.086-.515.172-.903.172-1.247 0-.859-.343-1.246-1.247-1.246-1.204 0-2.15.602-3.096 2.064l-3.139 14.62h-7.482l2.967-13.975c.474-2.322.775-4 .775-5.547 0-.688-.086-1.291-.172-1.978l6.621-1.247c.172.731.344 1.505.387 2.407 1.72-1.504 4.3-2.407 6.752-2.407 4.384 0 5.632 1.977 5.632 4.386 0 .644-.086 1.29-.214 1.978m15.952-.903h-3.097l-1.891 8.944c-.215.945-.301 1.676-.301 2.235 0 1.248.559 1.548 1.848 1.548.689 0 1.42-.172 1.979-.429l-.043 4.3c-2.065.903-4.042 1.289-5.547 1.289-3.999 0-6.32-.773-6.32-3.913 0-.559.086-1.204.214-1.891l2.581-12.083h-1.807l1.075-4.902h1.806c.472-2.193.946-4.214 1.419-5.503l7.653-1.12c-.73 2.366-1.16 4.559-1.59 6.623h4.041l-2.02 4.902m12.899-.259c-1.891 0-2.924 1.506-3.396 3.785.214.086.73.215 1.547.215 1.677 0 3.527-.86 3.527-2.451 0-.989-.603-1.549-1.678-1.549zm-1.978 8.945c-1.246 0-2.279-.087-2.622-.172a9.107 9.107 0 0 0-.13 1.333c0 2.15.818 2.751 3.096 2.751 1.892 0 4.343-.902 6.236-2.193l1.461 4.688c-3.526 1.978-6.836 2.752-9.116 2.752-6.363 0-9.244-2.538-9.244-8.17 0-8.17 4.815-15.179 13.028-15.179 4.644 0 8.385 1.763 8.385 6.321 0 4.127-3.827 7.869-11.094 7.869zm27.779-7.525c-.69-.43-1.205-.602-2.065-.602-1.29 0-2.107.688-3.052 2.107l-3.139 14.62h-7.482l2.88-13.502c.817-3.827 1.118-5.762.645-7.998l6.665-1.247c.259.817.388 1.591.431 2.537 1.074-1.204 3.095-2.623 5.461-2.623 1.074 0 1.718.215 2.666.645l-3.01 6.063m23.391-.258l-3.483 16.383h-7.482l3.009-14.191c.086-.515.172-.903.172-1.247 0-.859-.343-1.246-1.246-1.246-1.204 0-2.15.602-3.095 2.064l-3.139 14.62h-7.483l2.967-13.975c.473-2.322.774-4 .774-5.547 0-.688-.086-1.291-.172-1.978l6.622-1.247c.173.731.345 1.505.388 2.407 1.718-1.504 4.298-2.407 6.75-2.407 4.386 0 5.632 1.977 5.632 4.386 0 .644-.086 1.29-.214 1.978m15.049-1.162c-1.891 0-2.923 1.506-3.397 3.785.216.086.732.215 1.549.215 1.676 0 3.525-.86 3.525-2.451 0-.989-.601-1.549-1.677-1.549zm-1.977 8.945c-1.247 0-2.279-.087-2.623-.172a9.083 9.083 0 0 0-.129 1.333c0 2.15.816 2.751 3.096 2.751 1.892 0 4.342-.902 6.234-2.193l1.463 4.688c-3.527 1.978-6.838 2.752-9.116 2.752-6.365 0-9.246-2.538-9.246-8.17 0-8.17 4.817-15.179 13.03-15.179 4.643 0 8.385 1.763 8.385 6.321 0 4.127-3.828 7.869-11.094 7.869zm25.628-8.686h-3.097l-1.891 8.944c-.215.945-.301 1.676-.301 2.235 0 1.248.559 1.548 1.848 1.548.689 0 1.42-.172 1.979-.429l-.043 4.3c-2.065.903-4.042 1.289-5.547 1.289-3.999 0-6.32-.773-6.32-3.913 0-.559.086-1.204.215-1.891l2.58-12.083h-1.807l1.075-4.902h1.806c.472-2.193.946-4.214 1.419-5.503l7.653-1.12c-.73 2.366-1.16 4.559-1.59 6.623h4.041l-2.02 4.902m13.803 0h-3.095l-1.893 8.944c-.215.945-.301 1.676-.301 2.235 0 1.248.559 1.548 1.849 1.548.688 0 1.419-.172 1.978-.429l-.043 4.3c-2.064.903-4.041 1.289-5.547 1.289-3.998 0-6.321-.773-6.321-3.913 0-.559.086-1.204.215-1.891l2.58-12.083h-1.806l1.076-4.902h1.805c.473-2.193.947-4.214 1.419-5.503l7.654-1.12c-.732 2.366-1.161 4.559-1.591 6.623h4.042l-2.021 4.902m12.899-.259c-1.891 0-2.924 1.506-3.397 3.785.215.086.731.215 1.549.215 1.676 0 3.526-.86 3.526-2.451 0-.989-.602-1.549-1.678-1.549zm-1.977 8.945c-1.248 0-2.279-.087-2.623-.172a9.083 9.083 0 0 0-.129 1.333c0 2.15.817 2.751 3.096 2.751 1.891 0 4.342-.902 6.234-2.193l1.463 4.688c-3.527 1.978-6.838 2.752-9.117 2.752-6.363 0-9.244-2.538-9.244-8.17 0-8.17 4.816-15.179 13.029-15.179 4.643 0 8.385 1.763 8.385 6.321 0 4.127-3.828 7.869-11.094 7.869zm34.573-7.783l-3.485 16.383h-7.48l3.01-14.191c.085-.515.171-.903.171-1.247 0-.859-.343-1.246-1.248-1.246-1.203 0-2.148.602-3.095 2.064l-3.139 14.62h-7.482l2.966-13.975c.475-2.322.776-4 .776-5.547 0-.688-.086-1.291-.172-1.978l6.621-1.247c.172.731.344 1.505.387 2.407 1.72-1.504 4.3-2.407 6.752-2.407 4.384 0 5.632 1.977 5.632 4.386 0 .644-.086 1.29-.214 1.978" fill="#839287"/><path d="M295.967 37.818c-2.408 0-4.387-1.978-4.387-4.428 0-2.366 1.979-4.343 4.387-4.343 2.408 0 4.429 1.977 4.429 4.343 0 2.45-2.021 4.428-4.429 4.428m31.646-17.156l-3.482 16.383h-7.483l3.01-14.191c.086-.515.172-.903.172-1.247 0-.859-.344-1.246-1.246-1.246-1.205 0-2.15.602-3.096 2.064l-3.138 14.62h-7.483l2.967-13.975c.473-2.322.773-4 .773-5.547 0-.688-.086-1.291-.171-1.978l6.623-1.247c.171.731.343 1.505.386 2.407 1.719-1.504 4.299-2.407 6.75-2.407 4.387 0 5.633 1.977 5.633 4.386 0 .644-.086 1.29-.215 1.978" fill="#EC902D"/><mask id="d" fill="#fff"><use xlink:href="#c"/></mask><path d="M342.492 10.986l-3.527 16.469c-.344 1.678-.559 2.795-.559 3.569 0 1.033.387 1.376 1.334 1.376.258 0 .516-.043.817-.128l.214 4.644c-1.074.387-2.923.688-4.988.688-4.256 0-5.375-1.462-5.375-3.785 0-1.118.258-2.45.559-3.913l3.226-15.135c.516-2.494 1.246-5.46 1.161-8.041l7.783-1.291v.474c0 1.204-.215 3.139-.645 5.073" fill="#EC902D" mask="url(#d)"/><path d="M70.866 30.395L64.79 17.619l-3.888-1.174 3.143-7.556L59.652.68 35.434 8.746 11.214.68 6.821 8.889l3.144 7.556-3.888 1.174L0 30.395l8.34 7.931 18.935-6.808 3.233 22.939.003.02c.395 2.502 2.776 3.812 4.923 3.812 2.146 0 4.527-1.31 4.922-3.812l3.235-22.959 18.935 6.808 8.34-7.931" fill="#FFF" mask="url(#d)"/><path d="M35.434 8.746l12.997-4.328A23.707 23.707 0 0 0 35.432.559a23.7 23.7 0 0 0-12.997 3.857l12.999 4.33m-8.159 22.772l-12.601 4.531c3.147 5.586 8.483 9.773 14.846 11.398l-2.245-15.929m16.316 0l-2.244 15.929c6.362-1.627 11.698-5.812 14.845-11.398l-12.601-4.531m-8.157-2.934l-5.906 2.125-.004.078 3.288 23.334c.195 1.194 1.495 1.838 2.622 1.838 1.126 0 2.425-.644 2.621-1.838l3.287-23.334-.004-.078-5.904-2.125M9.396 9.014l2.81 6.756 19.379-5.85-19.243-6.41-2.946 5.504" fill="#839287"/><path d="M39.282 9.92l19.378 5.85 2.81-6.756-2.945-5.504-19.243 6.41" fill="#EC902D"/><path d="M36.598 26.529l25.365 9.119 6.075-5.779-4.909-10.318-26.531-8.008v14.986" fill="#839287"/><path d="M2.829 29.869l6.075 5.779 25.365-9.119V11.543L7.737 19.551 2.829 29.869" fill="#EC902D"/><path d="M355.551 11.814h-.848l.408-3.201c0-.022.011-.088.011-.088l-.044.088-1.64 3.201h-.725l-.254-3.091c-.01-.088-.01-.176-.021-.253a1.33 1.33 0 0 1-.067.264l-.88 3.08h-.858l1.43-4.73h1.089l.232 2.871c.011.133.011.242.011.342.054-.111.099-.221.165-.342l1.441-2.871h1.101l-.551 4.73zm-4.906-4.015H349.4l-.824 4.015h-.858l.825-4.015H347.3l.143-.715h3.444l-.242.715z" fill="#839287"/></g></svg>