<svg viewBox="0 0 1030 96" xmlns="http://www.w3.org/2000/svg"><path d="M95.834 95H82.37V54.212c0-10.428-5.94-14.916-13.464-14.916-7.26 0-13.86 4.62-13.86 14.256V95H41.582V54.212c0-10.428-5.94-14.916-13.464-14.916s-13.86 4.62-13.86 14.916V95H.794V28.076h13.2v6.732c4.488-4.884 11.088-7.524 17.82-7.524 8.316 0 14.784 3.3 19.008 9.768 5.412-6.6 12.144-9.768 20.988-9.768 6.864 0 12.936 2.244 16.896 6.072 5.148 5.016 7.128 11.352 7.128 18.876V95zm70.352-29.568h-43.428c0 11.484 6.072 18.744 17.028 18.744 7.524 0 11.484-2.112 16.236-6.864l8.58 8.052c-6.864 6.864-13.332 10.428-25.08 10.428-16.764 0-30.096-8.844-30.096-34.32 0-21.648 11.22-34.188 28.38-34.188 17.952 0 28.38 13.2 28.38 32.208v5.94zm-13.332-9.372c-.132-4.092-.528-6.072-1.848-9.108-2.112-5.016-6.864-8.448-13.2-8.448-6.336 0-11.22 3.432-13.332 8.448-1.32 3.036-1.584 5.016-1.716 9.108h30.096zm80.78 9.372h-43.428c0 11.484 6.072 18.744 17.028 18.744 7.524 0 11.484-2.112 16.236-6.864l8.58 8.052c-6.864 6.864-13.332 10.428-25.08 10.428-16.764 0-30.096-8.844-30.096-34.32 0-21.648 11.22-34.188 28.38-34.188 17.952 0 28.38 13.2 28.38 32.208v5.94zm-13.332-9.372c-.132-4.092-.528-6.072-1.848-9.108-2.112-5.016-6.864-8.448-13.2-8.448-6.336 0-11.22 3.432-13.332 8.448-1.32 3.036-1.584 5.016-1.716 9.108h30.096zm74.444-22.44l-10.164 10.164c-3.036-3.036-5.412-4.488-10.032-4.488-7.26 0-13.332 5.808-13.332 15.048V95h-13.464V28.076h13.2v7.26c3.432-4.752 10.296-8.052 17.82-8.052 6.468 0 11.352 1.716 15.972 6.336zm55.436 40.92c0 13.992-11.88 21.252-27.852 21.252-10.956 0-20.196-1.848-28.116-9.636l8.844-8.844c5.412 5.544 12.672 6.996 19.272 6.996 8.184 0 14.652-2.904 14.652-9.24 0-4.488-2.508-7.392-8.976-7.92l-10.692-.924c-12.54-1.056-19.8-6.732-19.8-18.48 0-13.068 11.22-20.46 25.212-20.46 10.032 0 18.612 2.112 24.816 7.524l-8.448 8.58c-4.224-3.564-10.164-4.884-16.5-4.884-8.052 0-12.144 3.564-12.144 8.58 0 3.96 2.112 6.996 9.24 7.656l10.56.924c12.54 1.056 19.932 6.996 19.932 18.876zM389.514 95h-8.052c-12.54 0-18.348-8.976-18.348-18.612V39.56h-7.656V29.264h7.656V8.936h13.464v20.328h12.936V39.56h-12.936v36.168c0 4.884 2.376 7.788 7.392 7.788h5.544V95zm62.3 0h-13.2v-6.072c-4.884 4.884-9.504 6.864-17.82 6.864s-13.86-1.98-17.952-6.072c-3.432-3.564-5.28-8.712-5.28-14.388 0-11.22 7.788-19.272 23.1-19.272h17.688v-4.752c0-8.448-4.224-12.54-14.652-12.54-7.392 0-10.956 1.716-14.652 6.468l-8.844-8.316c6.336-7.392 12.936-9.636 24.024-9.636 18.348 0 27.588 7.788 27.588 22.968V95zM438.35 70.844v-5.412h-15.708c-7.92 0-12.012 3.564-12.012 9.636 0 6.072 3.828 9.504 12.276 9.504 5.148 0 8.976-.396 12.54-3.828 1.98-1.98 2.904-5.148 2.904-9.9zM520.45 95h-13.2v-7.128c-5.016 6.072-10.428 7.92-17.688 7.92-6.732 0-12.672-2.244-16.368-5.94-6.732-6.732-7.524-18.216-7.524-28.38 0-10.164.792-21.516 7.524-28.248 3.696-3.696 9.504-5.94 16.236-5.94 7.128 0 12.672 1.716 17.556 7.524V1.016h13.464V95zm-13.464-33.528c0-11.88-1.716-22.176-13.86-22.176s-13.992 10.296-13.992 22.176c0 11.88 1.848 22.308 13.992 22.308s13.86-10.428 13.86-22.308zm120.116-35.244L606.114 95H591.99l-14.388-43.164L563.214 95H549.09l-21.12-68.772h18.216l11.088 42.504 13.992-42.504h12.54l14.124 42.504 11.088-42.504h18.084zm61.904 39.732h-43.032c0 8.844 5.412 15.312 15.048 15.312 7.524 0 11.22-2.112 15.576-6.468l10.428 10.164c-6.996 6.996-13.728 10.824-26.136 10.824-16.236 0-31.812-7.392-31.812-35.244 0-22.44 12.144-35.112 29.964-35.112 19.14 0 29.964 13.992 29.964 32.868v7.656zM672.11 54.212c-.132-3.036-.528-4.884-1.584-7.392-1.848-4.092-5.676-7.128-11.484-7.128s-9.636 3.036-11.484 7.128c-1.056 2.508-1.452 4.356-1.584 7.392h26.136zm86.588 6.336c0 10.296-.132 22.176-6.996 29.04-3.828 3.828-10.032 6.204-16.764 6.204-7.26 0-12.408-1.98-17.16-7.26V95h-16.632V1.016h17.16V32.3c4.488-5.016 9.636-6.864 16.632-6.864 6.732 0 12.936 2.376 16.764 6.204 6.864 6.864 6.996 18.612 6.996 28.908zm-17.16 0c0-11.22-1.32-19.668-11.616-19.668s-11.616 8.448-11.616 19.668c0 11.22 1.32 19.8 11.616 19.8s11.616-8.58 11.616-19.8zm81.572 12.804c0 15.18-12.936 22.44-29.172 22.44-10.824 0-20.592-1.188-29.304-9.9l11.22-11.22c5.676 5.676 13.068 6.468 18.348 6.468 5.94 0 12.144-1.98 12.144-7.128 0-3.432-1.848-5.808-7.26-6.336l-10.824-1.056c-12.408-1.188-20.064-6.6-20.064-19.272 0-14.256 12.54-21.912 26.532-21.912 10.692 0 19.668 1.848 26.268 8.052l-10.56 10.692c-3.96-3.564-10.032-4.62-15.972-4.62-6.864 0-9.768 3.168-9.768 6.6 0 2.508 1.056 5.412 7.128 5.94l10.824 1.056c13.596 1.32 20.46 8.58 20.46 20.196zM850.958 95h-17.16V26.228h17.16V95zm.132-80.52h-17.556V.488h17.556V14.48zM897.286 95h-9.372c-13.992 0-19.932-9.9-19.932-19.668V41.276h-7.26V28.208h7.26V7.88h17.16v20.328h12.144v13.068h-12.144v33c0 3.96 1.848 6.204 5.94 6.204h6.204V95zm67.976-29.04H922.23c0 8.844 5.412 15.312 15.048 15.312 7.524 0 11.22-2.112 15.576-6.468l10.428 10.164c-6.996 6.996-13.728 10.824-26.136 10.824-16.236 0-31.812-7.392-31.812-35.244 0-22.44 12.144-35.112 29.964-35.112 19.14 0 29.964 13.992 29.964 32.868v7.656zm-16.896-11.748c-.132-3.036-.528-4.884-1.584-7.392-1.848-4.092-5.676-7.128-11.484-7.128s-9.636 3.036-11.484 7.128c-1.056 2.508-1.452 4.356-1.584 7.392h26.136zm80.78 19.14c0 15.18-12.936 22.44-29.172 22.44-10.824 0-20.592-1.188-29.304-9.9l11.22-11.22c5.676 5.676 13.068 6.468 18.348 6.468 5.94 0 12.144-1.98 12.144-7.128 0-3.432-1.848-5.808-7.26-6.336l-10.824-1.056c-12.408-1.188-20.064-6.6-20.064-19.272 0-14.256 12.54-21.912 26.532-21.912 10.692 0 19.668 1.848 26.268 8.052l-10.56 10.692c-3.96-3.564-10.032-4.62-15.972-4.62-6.864 0-9.768 3.168-9.768 6.6 0 2.508 1.056 5.412 7.128 5.94l10.824 1.056c13.596 1.32 20.46 8.58 20.46 20.196z"/></svg>