<svg viewBox="0 0 201 34" xmlns="http://www.w3.org/2000/svg"><g fill="none" fill-rule="evenodd"><path d="M17.89 5.172l7-2.342a12.723 12.723 0 0 0-7-2.087 12.72 12.72 0 0 0-7 2.087l7 2.342m-4.392 12.315l-6.786 2.451a12.857 12.857 0 0 0 7.995 6.165l-1.21-8.616m8.786 0l-1.208 8.615a12.856 12.856 0 0 0 7.994-6.164l-6.786-2.45m-4.393-1.587l-3.18 1.148-.001.042 1.77 12.62c.105.647.805.996 1.412.996.606 0 1.306-.349 1.41-.995l1.77-12.62v-.043l-3.18-1.148M3.87 5.317L5.383 8.97l10.435-3.165L5.456 2.34 3.87 5.317" fill="#004A6B"/><path fill="#C11E42" d="M19.963 5.805L30.398 8.97l1.513-3.653-1.586-2.978-10.362 3.466"/><path fill="#004A6B" d="M18.517 14.788l13.659 4.934 3.271-3.126-2.643-5.58-14.287-4.333v8.105"/><path fill="#C11E42" d="M.333 16.596l3.272 3.126 13.659-4.934V6.683L2.977 11.015.333 16.596"/><path d="M47.586 2.237h5.727c.856 0 1.659.085 2.408.255.75.17 1.4.443 1.954.819a4 4 0 0 1 1.31 1.476c.322.608.482 1.35.482 2.228 0 1.27-.223 2.348-.669 3.234a5.99 5.99 0 0 1-1.792 2.161c-.75.555-1.62.957-2.61 1.208-.99.25-2.029.376-3.117.376h-1.766l-1.124 5.69h-4.282l3.479-17.447zm4.201 8.375c1.106 0 1.958-.25 2.556-.752.597-.501.896-1.235.896-2.201 0-.698-.218-1.212-.655-1.543-.437-.332-1.057-.497-1.86-.497h-1.552l-.964 4.993h1.58zm13.086 9.394c-.803 0-1.534-.134-2.194-.402a4.733 4.733 0 0 1-1.686-1.141 5.253 5.253 0 0 1-1.084-1.758c-.259-.68-.388-1.44-.388-2.282 0-1.306.223-2.483.669-3.53.446-1.046 1.03-1.937 1.753-2.67a7.76 7.76 0 0 1 2.435-1.691c.9-.394 1.815-.59 2.743-.59.803 0 1.534.133 2.194.402a4.73 4.73 0 0 1 1.686 1.14 5.226 5.226 0 0 1 1.084 1.772c.259.689.388 1.445.388 2.268 0 1.307-.223 2.483-.669 3.53-.446 1.047-1.03 1.937-1.753 2.67a7.76 7.76 0 0 1-2.435 1.692 6.802 6.802 0 0 1-2.743.59zm1.766-10.63a1.81 1.81 0 0 0-1.097.377c-.339.25-.633.595-.883 1.033-.25.438-.446.966-.589 1.584a8.868 8.868 0 0 0-.214 2c0 .68.12 1.216.361 1.61.241.394.62.59 1.138.59a1.81 1.81 0 0 0 1.097-.375c.339-.25.633-.595.883-1.034.25-.438.446-.962.589-1.57a8.82 8.82 0 0 0 .214-2.013c0-.68-.12-1.217-.361-1.61-.241-.394-.62-.591-1.138-.591zm10.597-8.374h4.282l-2.89 14.387a1.47 1.47 0 0 0-.054.31v.2c0 .251.054.425.16.524a.536.536 0 0 0 .376.148h.227a.858.858 0 0 0 .254-.054l-.16 3.167c-.25.09-.558.166-.924.228a7.553 7.553 0 0 1-1.27.094c-1.107 0-1.892-.264-2.356-.792-.463-.527-.695-1.248-.695-2.16a7.325 7.325 0 0 1 .214-1.825l2.836-14.227zm6.583 5.261h4.282l-2.676 13.421h-4.282l2.676-13.42zm2.837-1.718c-.285 0-.562-.04-.83-.12a2.287 2.287 0 0 1-.722-.363 1.72 1.72 0 0 1-.509-.617 1.964 1.964 0 0 1-.187-.886c0-.322.067-.63.2-.926.135-.295.317-.55.55-.765a2.84 2.84 0 0 1 .816-.524 2.514 2.514 0 0 1 1.003-.2 2.599 2.599 0 0 1 1.552.51c.214.16.384.366.509.617a1.9 1.9 0 0 1 .187.858c0 .698-.245 1.275-.736 1.732-.49.456-1.102.684-1.833.684zm3.853 10.79c.482.573.946.976 1.392 1.209.446.232.874.349 1.285.349.41 0 .762-.085 1.057-.255.294-.17.441-.39.441-.658a.679.679 0 0 0-.16-.456 2.481 2.481 0 0 0-.442-.39 5.346 5.346 0 0 0-.71-.416 17.548 17.548 0 0 1-.936-.51 6.844 6.844 0 0 1-.95-.644 4.951 4.951 0 0 1-.83-.845 4.035 4.035 0 0 1-.575-1.034 3.45 3.45 0 0 1-.214-1.234c0-.645.143-1.24.428-1.785a4.645 4.645 0 0 1 1.151-1.423 5.482 5.482 0 0 1 1.713-.953 6.314 6.314 0 0 1 2.114-.349c.963 0 1.82.21 2.569.63.75.421 1.41.927 1.98 1.517l-2.301 2.201a5.767 5.767 0 0 0-1.044-.832 2.243 2.243 0 0 0-1.204-.349c-.428 0-.767.094-1.017.282-.25.188-.375.416-.375.685a.7.7 0 0 0 .188.496c.124.135.29.264.495.39.205.125.437.25.695.375.26.126.513.26.763.403.321.179.642.38.963.604a4.114 4.114 0 0 1 1.472 1.825c.16.385.241.828.241 1.329 0 .68-.143 1.293-.428 1.839a4.413 4.413 0 0 1-1.19 1.422c-.51.403-1.12.711-1.834.926a8.048 8.048 0 0 1-2.328.322 5.4 5.4 0 0 1-1.258-.16 6.395 6.395 0 0 1-2.582-1.303 4.962 4.962 0 0 1-1.03-1.167l2.461-2.04zm11.32-9.072h4.228l-.134 5.96c-.035.661-.08 1.328-.133 1.999a74.768 74.768 0 0 0-.134 2.026h.107c.25-.68.49-1.36.722-2.04.232-.68.491-1.342.776-1.986l2.436-5.959h3.639l.134 5.96c.018.661.013 1.328-.014 1.999-.026.67-.04 1.346-.04 2.026h.107c.25-.68.473-1.355.67-2.026a27.91 27.91 0 0 1 .668-2l2.141-5.959h3.96l-5.565 13.421h-4.978v-4.992a33.03 33.03 0 0 0 .054-1.88c0-.626.018-1.306.053-2.04h-.107c-.25.734-.477 1.414-.682 2.04a52.252 52.252 0 0 1-.656 1.88l-1.927 4.992h-4.816l-.509-13.42zm21.382 0h4.281l-2.676 13.421h-4.281l2.676-13.42zm2.836-1.718c-.285 0-.562-.04-.83-.12a2.287 2.287 0 0 1-.722-.363 1.72 1.72 0 0 1-.508-.617 1.964 1.964 0 0 1-.188-.886c0-.322.067-.63.201-.926.134-.295.317-.55.549-.765a2.84 2.84 0 0 1 .816-.524 2.514 2.514 0 0 1 1.003-.2 2.599 2.599 0 0 1 1.552.51c.215.16.384.366.509.617a1.9 1.9 0 0 1 .187.858c0 .698-.245 1.275-.736 1.732-.49.456-1.101.684-1.833.684zm6.209 15.086a9.967 9.967 0 0 1-.616 1.972 5.755 5.755 0 0 1-1.044 1.624 4.624 4.624 0 0 1-1.552 1.1c-.606.27-1.32.404-2.14.404a7.06 7.06 0 0 1-1.392-.135 5.33 5.33 0 0 1-1.392-.51l1.285-3.06c.375.215.75.322 1.124.322.428 0 .745-.147.95-.442.205-.296.388-.792.548-1.49l2.623-13.153h4.282l-2.676 13.368zm1.23-15.086c-.285 0-.561-.04-.829-.12a2.287 2.287 0 0 1-.723-.363 1.72 1.72 0 0 1-.508-.617 1.964 1.964 0 0 1-.187-.886c0-.322.067-.63.2-.926.134-.295.317-.55.549-.765a2.84 2.84 0 0 1 .816-.524 2.514 2.514 0 0 1 1.004-.2 2.599 2.599 0 0 1 1.552.51c.214.16.383.366.508.617a1.9 1.9 0 0 1 .188.858c0 .698-.246 1.275-.736 1.732-.49.456-1.102.684-1.833.684zm1.874 12.723l6.422-7.676h-4.388l.642-3.329h9.74l-.481 2.47-6.423 7.623h5.085l-.642 3.328h-10.437l.482-2.416zm12.417-3.06c0-1.234.223-2.357.669-3.368a8.505 8.505 0 0 1 1.752-2.604 8.066 8.066 0 0 1 2.436-1.691c.9-.403 1.797-.604 2.689-.604.82 0 1.512.134 2.074.403a3.615 3.615 0 0 1 1.365 1.1 4.61 4.61 0 0 1 .762 1.624c.161.618.241 1.275.241 1.973 0 .34-.031.68-.093 1.02a11.678 11.678 0 0 1-.455 1.731 3.01 3.01 0 0 1-.201.47h-7.225c.035.895.312 1.54.83 1.933.517.393 1.168.59 1.953.59.374 0 .767-.09 1.177-.268.41-.18.767-.376 1.07-.59l1.5 2.684c-.536.375-1.223.702-2.061.98-.839.277-1.811.415-2.917.415-.82 0-1.57-.134-2.248-.402a4.993 4.993 0 0 1-1.753-1.155 5.302 5.302 0 0 1-1.15-1.825c-.277-.716-.415-1.52-.415-2.416zm8.402-2.523a1.98 1.98 0 0 0 .08-.389 4.03 4.03 0 0 0 .027-.47c0-.465-.107-.85-.32-1.154-.215-.304-.607-.456-1.178-.456-.518 0-1.017.197-1.499.59-.481.394-.874 1.02-1.177 1.88h4.067zm7.172-5.422h3.479l-.107 2.63h.107c.517-.858 1.137-1.565 1.86-2.12.722-.555 1.458-.832 2.208-.832.374 0 .673.022.896.067.223.045.406.112.549.201l-1.392 3.705a1.64 1.64 0 0 0-.682-.188 10.345 10.345 0 0 0-.71-.027c-.57 0-1.101.188-1.592.564-.49.375-.994 1.01-1.512 1.905l-1.445 7.516h-4.281l2.622-13.42z" fill="#004A6B"/><path d="M172.129 20.006c-.643 0-1.16-.205-1.553-.617-.392-.412-.588-.957-.588-1.637 0-.358.071-.716.214-1.074.143-.358.343-.68.602-.966a3.11 3.11 0 0 1 .923-.698 2.649 2.649 0 0 1 1.204-.269c.643 0 1.16.215 1.552.644.393.43.59.967.59 1.611 0 .376-.072.743-.215 1.1-.143.358-.343.68-.602.967a2.927 2.927 0 0 1-.923.684c-.357.17-.758.255-1.204.255zm8.349-13.743h3.479v1.718h.107a12.286 12.286 0 0 1 2.047-1.423 4.85 4.85 0 0 1 2.395-.617c1.106 0 1.909.29 2.408.872.5.582.75 1.454.75 2.618a9.47 9.47 0 0 1-.214 1.932l-1.66 8.321h-4.281l1.552-7.784c.053-.25.102-.47.147-.658.045-.188.067-.362.067-.523 0-.376-.098-.658-.294-.846-.197-.187-.473-.281-.83-.281-.375 0-.74.12-1.097.362s-.776.622-1.258 1.14l-1.66 8.59h-4.28l2.622-13.42zm16.163-5.26h4.282l-2.89 14.386a1.47 1.47 0 0 0-.054.31v.2c0 .251.054.425.16.524a.536.536 0 0 0 .375.148h.228a.858.858 0 0 0 .254-.054l-.16 3.167c-.25.09-.558.166-.924.228-.366.063-.79.094-1.271.094-1.106 0-1.891-.264-2.355-.792-.464-.527-.696-1.248-.696-2.16a7.324 7.324 0 0 1 .214-1.825l2.837-14.227z" fill="#C11E42"/><path d="M43.723 30.12c0-.418.066-.81.197-1.177.13-.367.306-.686.526-.957.22-.272.471-.485.754-.64a1.8 1.8 0 0 1 .878-.232c.214 0 .41.055.59.165.177.11.317.261.418.452h.018l.187-.51h.768l-.875 4.393H46.4l.045-.608h-.027a2.68 2.68 0 0 1-.691.519 1.625 1.625 0 0 1-.754.196c-.386 0-.691-.137-.914-.411-.223-.275-.335-.671-.335-1.19zm1.642.814c.19 0 .385-.057.584-.17.2-.113.388-.304.566-.573l.357-1.753a1.08 1.08 0 0 0-.343-.412.716.716 0 0 0-.397-.125.98.98 0 0 0-.535.165 1.6 1.6 0 0 0-.455.452 2.402 2.402 0 0 0-.312.667 2.73 2.73 0 0 0-.116.8c0 .323.058.561.174.716a.563.563 0 0 0 .477.233zm6.083-5.172h1.677c.571 0 1.028.11 1.37.327.341.218.512.547.512.989 0 .185-.034.356-.102.514-.069.158-.16.3-.277.425a1.819 1.819 0 0 1-.905.519l-.009.036c.315.077.566.209.754.394.187.185.28.435.28.751 0 .334-.063.622-.191.864a1.622 1.622 0 0 1-.526.59 2.343 2.343 0 0 1-.785.336c-.3.071-.623.107-.968.107h-1.99l1.16-5.852zm1.187 2.452c.481 0 .834-.09 1.057-.268a.871.871 0 0 0 .334-.716.608.608 0 0 0-.267-.528c-.179-.125-.455-.188-.83-.188h-.66l-.348 1.7h.714zm-.357 2.648c.482 0 .86-.089 1.133-.268.273-.179.41-.456.41-.832a.776.776 0 0 0-.285-.635c-.19-.155-.473-.233-.848-.233h-.9l-.393 1.968h.883zm3.318-1.002c0-.411.07-.786.21-1.123.14-.337.324-.626.553-.867.229-.242.486-.428.771-.56.286-.13.571-.196.857-.196.255 0 .471.041.646.125.176.083.319.198.429.344.11.146.19.318.24.515.051.197.076.408.076.635 0 .19-.024.376-.071.555a3.382 3.382 0 0 1-.116.376h-2.667c-.024.232-.012.432.035.599.048.167.12.304.219.412a.88.88 0 0 0 .361.237c.143.05.298.076.464.076.155 0 .312-.036.473-.108.16-.071.3-.152.42-.241l.356.617a2.79 2.79 0 0 1-.647.327 2.466 2.466 0 0 1-.852.138c-.261 0-.5-.041-.713-.125a1.552 1.552 0 0 1-.915-.944 2.244 2.244 0 0 1-.129-.792zm2.944-.805c.012-.06.022-.12.031-.183a1.43 1.43 0 0 0 .013-.202 1.04 1.04 0 0 0-.156-.568c-.104-.164-.29-.246-.557-.246-.268 0-.52.106-.754.318-.235.212-.406.505-.513.881h1.936zm2.185-1.834h.776l-.044.617h.035c.232-.197.472-.367.718-.51a1.55 1.55 0 0 1 .79-.214c.369 0 .633.095.794.286.16.19.24.465.24.823a2.19 2.19 0 0 1-.071.617l-.553 2.774h-.954l.535-2.648a8.81 8.81 0 0 1 .049-.26.997.997 0 0 0 .022-.206c0-.375-.184-.563-.553-.563a.957.957 0 0 0-.495.16 3.34 3.34 0 0 0-.61.52l-.59 2.997h-.963l.874-4.393zm6.387-1.459h.981l-.134 3.007c-.023.316-.044.63-.062.944-.018.313-.042.63-.071.953h.035c.131-.322.265-.642.402-.958.136-.316.267-.63.392-.94l1.33-3.006h.829l.053 3.007c0 .632-.009 1.264-.026 1.897h.035c.113-.322.23-.642.348-.958.12-.316.235-.63.348-.94l1.124-3.006h.928l-2.337 5.852h-1.214l-.017-3.185c0-.203.006-.425.017-.667l.036-.702h-.036c-.083.226-.17.455-.263.684-.092.23-.186.458-.28.685l-1.365 3.185h-1.196l.143-5.852zm7.832 5.96c-.244 0-.467-.042-.67-.126a1.44 1.44 0 0 1-.517-.358 1.603 1.603 0 0 1-.33-.563 2.236 2.236 0 0 1-.116-.743c0-.418.07-.8.21-1.15.14-.349.323-.646.549-.89a2.51 2.51 0 0 1 .771-.573c.289-.137.582-.205.879-.205.5 0 .898.16 1.195.478.298.32.446.756.446 1.311 0 .418-.07.8-.21 1.145-.14.346-.322.643-.548.89-.226.248-.483.44-.772.578a2.045 2.045 0 0 1-.887.205zm.678-3.83a.926.926 0 0 0-.504.157 1.54 1.54 0 0 0-.433.425 2.24 2.24 0 0 0-.299.635 2.694 2.694 0 0 0-.111.787c0 .334.065.592.196.774.13.182.324.273.58.273a.904.904 0 0 0 .5-.157c.16-.104.303-.247.428-.43a2.3 2.3 0 0 0 .298-.639c.075-.244.112-.507.112-.787 0-.334-.065-.59-.196-.77-.131-.179-.321-.268-.571-.268zm3.523-2.595h.955l-1.053 5.288a.49.49 0 0 0-.018.107v.063c0 .125.05.188.152.188a.452.452 0 0 0 .16-.027l-.017.716a.929.929 0 0 1-.232.067c-.09.015-.194.022-.312.022-.256 0-.444-.062-.562-.187-.12-.126-.179-.302-.179-.528 0-.138.021-.293.063-.466l1.043-5.243zm4.657 1.557l.303-1.557h.954l-1.266 6.317h-.785l.044-.608h-.027a2.68 2.68 0 0 1-.69.519 1.625 1.625 0 0 1-.755.196c-.386 0-.69-.137-.914-.411-.223-.275-.334-.671-.334-1.19 0-.418.065-.81.196-1.177.13-.367.306-.686.526-.957.22-.272.471-.485.754-.64a1.8 1.8 0 0 1 .879-.232c.214 0 .404.053.57.16.167.108.298.248.393.421h.027l.125-.841zm-1.83 4.08c.191 0 .384-.057.58-.17.197-.113.387-.304.572-.573l.356-1.753a1.08 1.08 0 0 0-.343-.412.716.716 0 0 0-.397-.125.98.98 0 0 0-.535.165 1.6 1.6 0 0 0-.455.452 2.43 2.43 0 0 0-.312.667 2.73 2.73 0 0 0-.116.8c0 .323.058.561.174.716a.563.563 0 0 0 .477.233zm3.935-3.713h.776l-.08.85h.035c.173-.275.375-.503.607-.685a1.19 1.19 0 0 1 1.186-.192l-.321.841a.512.512 0 0 0-.187-.058 1.792 1.792 0 0 0-.223-.013c-.209 0-.414.08-.616.241-.202.161-.392.412-.57.752l-.518 2.657h-.963l.874-4.393zm3.247 0h.954l-.874 4.393h-.963l.883-4.393zm.704-.779a.602.602 0 0 1-.374-.13.44.44 0 0 1-.17-.37c0-.174.063-.321.187-.443a.626.626 0 0 1 .455-.184.6.6 0 0 1 .375.13.44.44 0 0 1 .17.371.593.593 0 0 1-.188.448.634.634 0 0 1-.455.178zm1.526.779h.776l-.045.617h.036c.232-.197.471-.367.718-.51a1.55 1.55 0 0 1 .79-.214c.368 0 .633.095.793.286.16.19.241.465.241.823a2.19 2.19 0 0 1-.071.617l-.553 2.774h-.955l.535-2.648a8.81 8.81 0 0 1 .05-.26 1.07 1.07 0 0 0 .022-.206c0-.375-.185-.563-.553-.563a.957.957 0 0 0-.495.16 3.34 3.34 0 0 0-.611.52l-.59 2.997h-.963l.875-4.393zm8.331 0l-.892 4.456c-.125.62-.375 1.09-.75 1.409-.374.319-.853.479-1.435.479a2.22 2.22 0 0 1-.826-.161 2.815 2.815 0 0 1-.753-.448l.428-.644c.166.137.348.252.544.344.196.093.407.14.633.14.333 0 .601-.098.803-.292.202-.194.351-.466.446-.818l.214-.815H98.1a2.92 2.92 0 0 1-.655.475 1.57 1.57 0 0 1-.736.179 1.19 1.19 0 0 1-.914-.39c-.241-.26-.362-.645-.362-1.158a3.2 3.2 0 0 1 .705-2.027c.214-.26.46-.464.736-.613a1.79 1.79 0 0 1 .86-.223c.215 0 .41.055.585.165.175.11.31.261.406.452h.027l.187-.51h.776zm-2.658 3.507c.172 0 .361-.052.566-.156.205-.105.394-.273.567-.506l.33-1.628a1.1 1.1 0 0 0-.34-.412.695.695 0 0 0-.392-.125.94.94 0 0 0-.513.156 1.627 1.627 0 0 0-.437.425 2.2 2.2 0 0 0-.303.622 2.469 2.469 0 0 0-.111.747c0 .299.057.52.173.663.116.143.27.214.46.214zm5.682-3.507h.954l-.874 4.393h-.963l.883-4.393zm.705-.779a.602.602 0 0 1-.375-.13.44.44 0 0 1-.17-.37c0-.174.063-.321.188-.443a.626.626 0 0 1 .455-.184c.137 0 .261.043.374.13a.44.44 0 0 1 .17.371.593.593 0 0 1-.187.448.634.634 0 0 1-.455.178zm4.237.412l.303-1.557h.954l-1.266 6.317h-.785l.044-.608h-.026a2.68 2.68 0 0 1-.692.519 1.625 1.625 0 0 1-.753.196c-.387 0-.692-.137-.915-.411-.223-.275-.334-.671-.334-1.19 0-.418.065-.81.196-1.177.13-.367.306-.686.526-.957.22-.272.472-.485.754-.64.283-.155.575-.232.879-.232.214 0 .404.053.57.16.167.108.298.248.393.421h.027l.125-.841zm-1.829 4.08c.19 0 .384-.057.58-.17.196-.113.386-.304.57-.573l.358-1.753a1.08 1.08 0 0 0-.344-.412.716.716 0 0 0-.397-.125.98.98 0 0 0-.535.165 1.6 1.6 0 0 0-.455.452 2.43 2.43 0 0 0-.312.667 2.73 2.73 0 0 0-.116.8c0 .323.058.561.174.716a.563.563 0 0 0 .477.233zm3.158-1.074c0-.411.07-.786.21-1.123.14-.337.324-.626.552-.867.23-.242.487-.428.772-.56.285-.13.57-.196.856-.196.256 0 .472.041.647.125.176.083.318.198.428.344.11.146.19.318.241.515.05.197.076.408.076.635 0 .19-.024.376-.071.555a3.382 3.382 0 0 1-.116.376h-2.668c-.023.232-.011.432.036.599.048.167.12.304.219.412a.88.88 0 0 0 .361.237c.143.05.297.076.464.076.154 0 .312-.036.473-.108.16-.071.3-.152.419-.241l.357.617a2.79 2.79 0 0 1-.647.327 2.466 2.466 0 0 1-.852.138c-.262 0-.5-.041-.714-.125a1.552 1.552 0 0 1-.914-.944 2.244 2.244 0 0 1-.13-.792zm2.943-.805c.012-.06.023-.12.032-.183a1.43 1.43 0 0 0 .013-.202 1.04 1.04 0 0 0-.156-.568c-.104-.164-.29-.246-.558-.246-.267 0-.518.106-.753.318-.235.212-.406.505-.513.881h1.935zm1.428 1.065c0-.418.065-.81.196-1.177.13-.367.306-.686.526-.957.22-.272.471-.485.754-.64a1.8 1.8 0 0 1 .879-.232c.214 0 .41.055.588.165.179.11.318.261.42.452h.017l.188-.51h.767l-.874 4.393h-.785l.044-.608h-.026a2.68 2.68 0 0 1-.692.519 1.625 1.625 0 0 1-.754.196c-.386 0-.69-.137-.914-.411-.223-.275-.334-.671-.334-1.19zm1.641.814c.19 0 .385-.057.584-.17.2-.113.388-.304.567-.573l.356-1.753a1.08 1.08 0 0 0-.343-.412.716.716 0 0 0-.397-.125.98.98 0 0 0-.535.165 1.6 1.6 0 0 0-.455.452 2.43 2.43 0 0 0-.312.667 2.73 2.73 0 0 0-.116.8c0 .323.058.561.174.716a.563.563 0 0 0 .477.233z" fill="#004A6B"/></g></svg>