<svg viewBox="0 0 528 128" xmlns="http://www.w3.org/2000/svg"><path d="M30.206 119.419l13.508-1.11c0 3.926-3.026 7.363-6.755 7.669-3.722.309-6.753-2.638-6.753-6.559zm-6.872-4.122v-3.007c0-1.079.871-2.035 1.952-2.123l22.854-1.983a1.767 1.767 0 0 1 1.954 1.79v3.004c0 1.077-.878 2.036-1.954 2.124l-22.854 1.98c-1.08.095-1.952-.705-1.952-1.785zm-.007-10.65V99.76c0-1.082.878-2.036 1.956-2.126l23.356-.14c1.08-.09 1.951.71 1.951 1.787v3.012c0 1.077-.87 2.028-1.951 2.12l-23.356 2.024c-1.078.093-1.956-.708-1.956-1.79zM18.84 87.215l-.096-.312a100.63 100.63 0 0 0-.055-1.508l-.088-.311c-.04-1.333-.101-2.664-.184-3.989-1.073-12.806-4.45-25.482-9.5-38.23h56.066c-5.051 12.748-8.428 25.424-9.498 38.23a123.288 123.288 0 0 0-.184 3.989l-.088.31c-.022.503-.04 1.007-.055 1.51l-.096.31c-1.088 4.22-4.577 7.124-8.548 7.124-.11 0-.264 0-.383-.007h-18.36c-.119.007-.272.007-.383.007-3.97 0-7.46-2.904-8.548-7.123zM.986 25.289c-.683-1.353-1.063-2.947-.972-4.46l-.005-.013c-.313-8.643 7.916-14.41 20.085-17.568 4.391-1.155 10.517-1.875 16.68-1.9h.35c6.165.025 12.29.745 16.684 1.9 12.17 3.157 20.398 8.925 20.085 17.568l-.005.012c.091 1.514-.29 3.108-.972 4.46a235.51 235.51 0 0 0-5.141 10.902H6.125a238.076 238.076 0 0 0-5.14-10.901zM135.32 12.84c-1.6-1.813-3.733-3.28-6.4-4.4-2.667-1.12-5.707-1.68-9.12-1.68-5.013 0-8.667.947-10.96 2.84-2.293 1.893-3.44 4.467-3.44 7.72 0 1.707.307 3.107.92 4.2s1.56 2.04 2.84 2.84c1.28.8 2.92 1.493 4.92 2.08s4.36 1.173 7.08 1.76c3.04.64 5.773 1.36 8.2 2.16 2.427.8 4.493 1.8 6.2 3 1.707 1.2 3.013 2.653 3.92 4.36.907 1.707 1.36 3.84 1.36 6.4 0 2.613-.507 4.88-1.52 6.8s-2.427 3.52-4.24 4.8c-1.813 1.28-3.973 2.227-6.48 2.84-2.507.613-5.253.92-8.24.92-8.8 0-16.4-2.747-22.8-8.24l2.8-4.56c1.013 1.067 2.227 2.08 3.64 3.04 1.413.96 2.987 1.8 4.72 2.52a29.99 29.99 0 0 0 5.56 1.68c1.973.4 4.053.6 6.24.6 4.533 0 8.067-.813 10.6-2.44 2.533-1.627 3.8-4.093 3.8-7.4 0-1.76-.36-3.24-1.08-4.44-.72-1.2-1.8-2.24-3.24-3.12-1.44-.88-3.227-1.64-5.36-2.28-2.133-.64-4.613-1.28-7.44-1.92-2.987-.693-5.6-1.413-7.84-2.16-2.24-.747-4.133-1.68-5.68-2.8-1.547-1.12-2.707-2.467-3.48-4.04-.773-1.573-1.16-3.507-1.16-5.8 0-2.613.493-4.947 1.48-7a13.752 13.752 0 0 1 4.2-5.12c1.813-1.36 3.947-2.4 6.4-3.12 2.453-.72 5.173-1.08 8.16-1.08 3.787 0 7.16.573 10.12 1.72a27.174 27.174 0 0 1 8.04 4.84l-2.72 4.48zM155.38 59V2.2h5.6v51.84h32.8V59h-38.4zm50.22 0V17.32h5.44V59h-5.44zm0-50.4v-8h5.44v8h-5.44zM279.18 59V12.36l-20.72 36.08h-3.28l-20.72-36.08V59h-5.6V2.2h5.76l22.16 38.88L279.1 2.2h5.68V59h-5.6zm74.86 0V12.36l-20.72 36.08h-3.28l-20.72-36.08V59h-5.6V2.2h5.76l22.16 38.88L353.96 2.2h5.68V59h-5.6zm62.7-4.96V59h-38.16V2.2h37.44v4.96h-31.84v20.48h27.76v4.72h-27.76v21.68h32.56zM100.92 127V70.2h11.04v47.12h28.96V127h-40zm62.68-56.8h9.76l21.6 56.8H183.6l-5.28-14.16h-19.84l-5.2 14.16h-11.36l21.68-56.8zm12.72 34.88l-7.84-22.32-8.16 22.32h16zm71 21.92V89.4l-14.64 28h-6l-14.64-28V127H201V70.2h11.84l16.8 32.32L246.6 70.2h11.76V127h-11.04zm22.68 0V70.2h24.08c2.613 0 5.027.547 7.24 1.64s4.12 2.533 5.72 4.32a20.385 20.385 0 0 1 3.76 6.08c.907 2.267 1.36 4.547 1.36 6.84 0 2.4-.427 4.733-1.28 7-.853 2.267-2.053 4.28-3.6 6.04-1.547 1.76-3.413 3.173-5.6 4.24-2.187 1.067-4.587 1.6-7.2 1.6h-13.44V127H270zm11.04-28.72h12.8c2.027 0 3.72-.827 5.08-2.48 1.36-1.653 2.04-3.893 2.04-6.72 0-1.44-.213-2.733-.64-3.88-.427-1.147-.987-2.12-1.68-2.92a6.686 6.686 0 0 0-2.44-1.8 7.15 7.15 0 0 0-2.84-.6h-12.32v18.4zm78.04 19.04V127h-39.44V70.2h38.72v9.68h-27.68v13.68h23.92v8.96h-23.92v14.8h28.4zm19.48-26.72V127h-11.04V70.2h8.56l29.6 37.28v-37.2h11.04V127h-8.96l-29.2-36.4zm46.952 36.4v-5.376h3.552V127h-3.552zm8.152-12.576c0-1.76.304-3.424.912-4.992a12.268 12.268 0 0 1 2.592-4.104c1.12-1.168 2.456-2.096 4.008-2.784 1.552-.688 3.288-1.032 5.208-1.032 2.496 0 4.648.552 6.456 1.656 1.808 1.104 3.176 2.584 4.104 4.44l-4.128 1.296a6.868 6.868 0 0 0-2.688-2.76c-1.152-.656-2.432-.984-3.84-.984-1.152 0-2.24.232-3.264.696a7.758 7.758 0 0 0-2.64 1.944c-.736.832-1.32 1.808-1.752 2.928-.432 1.12-.648 2.352-.648 3.696 0 1.312.224 2.544.672 3.696.448 1.152 1.048 2.152 1.8 3a8.223 8.223 0 0 0 2.64 1.992 7.44 7.44 0 0 0 3.24.72c.736 0 1.464-.104 2.184-.312a8.385 8.385 0 0 0 1.968-.84 7.435 7.435 0 0 0 1.56-1.224c.448-.464.768-.968.96-1.512l4.128 1.248a8.88 8.88 0 0 1-1.608 2.544 10.053 10.053 0 0 1-2.424 1.968c-.928.544-1.96.976-3.096 1.296-1.136.32-2.328.48-3.576.48-1.888 0-3.616-.352-5.184-1.056-1.568-.704-2.912-1.648-4.032-2.832a12.801 12.801 0 0 1-2.616-4.152 13.561 13.561 0 0 1-.936-5.016zm38.776 13.056c-1.888 0-3.608-.352-5.16-1.056-1.552-.704-2.88-1.648-3.984-2.832a12.741 12.741 0 0 1-2.568-4.128 13.555 13.555 0 0 1-.912-4.944c0-1.76.312-3.424.936-4.992a13.08 13.08 0 0 1 2.592-4.128c1.104-1.184 2.432-2.128 3.984-2.832 1.552-.704 3.256-1.056 5.112-1.056 1.856 0 3.568.352 5.136 1.056 1.568.704 2.904 1.648 4.008 2.832a13.08 13.08 0 0 1 2.592 4.128c.624 1.568.936 3.232.936 4.992 0 1.728-.304 3.376-.912 4.944a12.536 12.536 0 0 1-2.592 4.128c-1.12 1.184-2.456 2.128-4.008 2.832-1.552.704-3.272 1.056-5.16 1.056zm-8.304-12.912c0 1.312.216 2.528.648 3.648a9.319 9.319 0 0 0 1.776 2.928 8.386 8.386 0 0 0 2.64 1.968 7.44 7.44 0 0 0 3.24.72 7.44 7.44 0 0 0 3.24-.72 8.494 8.494 0 0 0 2.664-1.992 9.316 9.316 0 0 0 1.8-2.976c.432-1.136.648-2.36.648-3.672 0-1.28-.216-2.488-.648-3.624a9.316 9.316 0 0 0-1.8-2.976 8.494 8.494 0 0 0-2.664-1.992 7.44 7.44 0 0 0-3.24-.72 7.24 7.24 0 0 0-3.24.744 8.534 8.534 0 0 0-2.64 2.016 9.555 9.555 0 0 0-1.776 2.976c-.432 1.136-.648 2.36-.648 3.672zM527.824 127H523.6v-14.016c0-2.624-.424-4.56-1.272-5.808-.848-1.248-2.104-1.872-3.768-1.872-1.728 0-3.272.616-4.632 1.848-1.36 1.232-2.328 2.824-2.904 4.776V127H506.8v-14.016c0-2.688-.416-4.64-1.248-5.856-.832-1.216-2.08-1.824-3.744-1.824-1.696 0-3.232.6-4.608 1.8-1.376 1.2-2.352 2.792-2.928 4.776V127h-4.224v-25.056h3.84v5.376c1.024-1.856 2.352-3.288 3.984-4.296 1.632-1.008 3.472-1.512 5.52-1.512 2.112 0 3.784.568 5.016 1.704 1.232 1.136 1.992 2.6 2.28 4.392 2.24-4.064 5.424-6.096 9.552-6.096 1.44 0 2.648.264 3.624.792a6.055 6.055 0 0 1 2.328 2.208c.576.944.992 2.056 1.248 3.336.256 1.28.384 2.672.384 4.176V127z"/></svg>