<svg xmlns="http://www.w3.org/2000/svg" viewBox="0 0 369.187 199.035"><defs><clipPath id="a" clipPathUnits="userSpaceOnUse"><path d="M0 149.276h276.89V0H0z"/></clipPath></defs><path d="M6.912 192.013h354.964V7.273H6.912z" fill="#fff"/><path d="M8.912 64.299h350.964v125.714H8.912zm-4 129.714h358.964V5.273H4.912z" fill="#1d1d1b"/><g clip-path="url(#a)" transform="matrix(1.33333 0 0 -1.33333 0 199.035)"><path d="M31.604 100.13c-2.248 0-4.092.27-5.533.807-1.442.537-2.577 1.3-3.408 2.29-.83.99-1.405 2.199-1.722 3.628-.317 1.429-.476 3.035-.476 4.818v15.097h8.501v-15.097c0-.831.03-1.563.091-2.198.061-.636.189-1.161.385-1.576.195-.415.476-.733.843-.953.366-.22.855-.33 1.465-.33.586 0 1.069.098 1.448.294.378.195.665.5.861.916.195.415.33.94.403 1.576.073.634.11 1.392.11 2.27v15.098h8.501v-15.097c0-1.856-.19-3.5-.569-4.928-.379-1.43-1.013-2.633-1.905-3.61-.892-.977-2.07-1.721-3.536-2.234-1.465-.513-3.285-.77-5.459-.77m31.072.549h-8.501v26.089h8.501zm32.39 26.09l-.77-6.45h-6.302v-19.64h-8.5v19.64h-7.109l.77 6.45zm21.619-16.673l3.7 16.672h8.795l-8.061-26.089h-9.015l-8.061 26.09h8.977zm28.03 1.319h3.884l-1.905 7.695zm5.35-5.936h-6.852l-1.21-4.8h-8.098l8.208 26.09h9.27l8.464-26.09h-8.61zm28.984 5.936h3.883l-1.904 7.695zm5.35-5.936h-6.853l-1.21-4.8h-8.098l8.209 26.09h9.27l8.465-26.09h-8.612zm27.589 9.673h2.382c1.685 0 2.528.843 2.528 2.528v.624c0 .88-.208 1.495-.623 1.85-.416.354-1.087.532-2.016.532h-2.27zm-8.17-14.473v26.09h12.274c1.54 0 2.858-.216 3.958-.643 1.098-.427 1.99-1.013 2.674-1.758a6.919 6.919 0 0 0 1.502-2.602c.318-.988.477-2.045.477-3.17v-1.208c0-1.564-.355-2.944-1.063-4.14-.709-1.199-1.71-2.139-3.005-2.823l5.057-9.746h-8.684l-3.7 8.317h-1.32v-8.316zm52.397 26.09l-.77-6.45h-6.302v-19.64h-8.501v19.64h-7.11l.77 6.45z" fill="#fff"/><path d="M38.2 87.087l-.624-4.544H26.987v-6.668h9.636l-.622-4.544h-9.014V60.998h-5.57v26.09zM49.96 72.43c0-1.562.105-2.827.313-3.792.207-.966.524-1.716.952-2.253a3.203 3.203 0 0 1 1.594-1.1c.635-.195 1.38-.292 2.235-.292.806 0 1.527.097 2.162.292a3.272 3.272 0 0 1 1.612 1.118c.44.549.776 1.306 1.008 2.27.23.966.348 2.218.348 3.757v3.225c0 1.563-.104 2.827-.311 3.792-.208.965-.526 1.716-.953 2.254a3.212 3.212 0 0 1-1.594 1.099c-.636.195-1.381.293-2.235.293-.806 0-1.527-.098-2.162-.293a3.268 3.268 0 0 1-1.613-1.118c-.44-.55-.775-1.307-1.007-2.272-.232-.965-.348-2.216-.348-3.755zm15.903.074c0-1.76-.165-3.378-.494-4.855-.33-1.48-.905-2.748-1.722-3.811-.82-1.062-1.918-1.893-3.298-2.492-1.381-.598-3.133-.897-5.258-.897-2.175 0-3.958.299-5.35.897-1.392.599-2.491 1.43-3.298 2.492-.806 1.063-1.368 2.332-1.685 3.81-.318 1.478-.477 3.096-.477 4.856v3.078c0 1.783.17 3.419.513 4.91.342 1.489.922 2.76 1.74 3.81.819 1.05 1.918 1.869 3.299 2.455 1.379.587 3.12.88 5.22.88 2.223 0 4.037-.312 5.442-.935 1.405-.623 2.504-1.472 3.298-2.546.793-1.076 1.337-2.345 1.63-3.811.294-1.466.44-3.054.44-4.763zm26.052 14.583l-.623-4.544H84.22V60.998h-5.569v21.545h-7.695l.623 4.544zm10.663-14.657c0-1.562.104-2.827.312-3.792.207-.966.524-1.716.952-2.253a3.203 3.203 0 0 1 1.594-1.1c.635-.195 1.38-.292 2.235-.292.806 0 1.527.097 2.162.292a3.272 3.272 0 0 1 1.612 1.118c.44.549.776 1.306 1.008 2.27.23.966.348 2.218.348 3.757v3.225c0 1.563-.104 2.827-.311 3.792-.208.965-.526 1.716-.953 2.254a3.212 3.212 0 0 1-1.594 1.099c-.636.195-1.381.293-2.235.293-.806 0-1.527-.098-2.162-.293a3.268 3.268 0 0 1-1.613-1.118c-.44-.55-.775-1.307-1.007-2.272-.232-.965-.348-2.216-.348-3.755zm15.902.074c0-1.76-.165-3.378-.494-4.855-.33-1.48-.905-2.748-1.722-3.811-.82-1.062-1.918-1.893-3.298-2.492-1.381-.598-3.133-.897-5.258-.897-2.175 0-3.958.299-5.35.897-1.392.599-2.491 1.43-3.298 2.492-.806 1.063-1.368 2.332-1.685 3.81-.318 1.478-.477 3.096-.477 4.856v3.078c0 1.783.17 3.419.513 4.91.342 1.489.922 2.76 1.74 3.81.819 1.05 1.918 1.869 3.299 2.455 1.379.587 3.12.88 5.22.88 2.223 0 4.037-.312 5.442-.935 1.405-.623 2.504-1.472 3.298-2.546.793-1.076 1.337-2.345 1.63-3.811.294-1.466.44-3.054.44-4.763zm20.555 10.406c-1.319 0-2.437-.123-3.353-.367-.916-.244-1.655-.665-2.216-1.264-.563-.598-.966-1.398-1.21-2.4s-.366-2.247-.366-3.737v-2.345c0-1.564.11-2.84.33-3.83.22-.988.58-1.764 1.081-2.326.5-.563 1.154-.947 1.96-1.154.806-.207 1.795-.311 2.968-.311.342 0 .69.012 1.044.036.354.025.74.06 1.155.11v5.753h-3.262l.513 4.323h7.988V61.805c-1.026-.343-2.284-.623-3.774-.844a31.976 31.976 0 0 0-4.653-.33c-1.979 0-3.67.239-5.075.715-1.405.477-2.547 1.209-3.426 2.199-.88.99-1.52 2.229-1.924 3.719-.403 1.49-.605 3.248-.605 5.276v2.675c0 1.832.202 3.5.605 5.002.403 1.502 1.081 2.79 2.033 3.865.954 1.075 2.205 1.906 3.756 2.492 1.552.586 3.475.879 5.771.879 1.27 0 2.516-.11 3.738-.33 1.221-.22 2.222-.463 3.005-.732l-.916-4.214c-.709.195-1.479.366-2.309.513-.83.147-1.783.22-2.858.22m20.483-7.988h4.287c1.27 0 2.21.305 2.82.916.612.61.916 1.502.916 2.675v.586c0 2.394-1.21 3.591-3.627 3.591h-4.396zm13.447 3.591c0-3.689-1.564-6.107-4.69-7.255l5.642-10.26h-6.082l-4.837 9.6h-3.48v-9.6h-5.424v26.09h10.883c1.416 0 2.632-.203 3.646-.606 1.013-.403 1.844-.953 2.492-1.649a6.32 6.32 0 0 0 1.41-2.454c.294-.94.44-1.96.44-3.06zm14.84-6.743h6.118l-3.041 10.004zm7.29-4.322h-8.427l-1.941-6.45h-5.424l8.685 26.089h5.862l8.904-26.088h-5.717zm21.912 4.322h6.118l-3.041 10.004zm7.292-4.322h-8.428l-1.942-6.45h-5.423l8.684 26.089h5.863l8.903-26.088h-5.716zm31.328 19.639l-.623-4.544h-10.59v-6.668h9.637l-.623-4.544h-9.014V60.998h-5.569v26.09zM33.106 44.694c-1.49 0-2.754-.135-3.792-.402-1.039-.27-1.881-.752-2.528-1.45-.648-.694-1.118-1.635-1.411-2.82-.293-1.184-.44-2.692-.44-4.524v-2.455c0-1.81.134-3.292.403-4.453.268-1.16.708-2.077 1.319-2.748.611-.671 1.405-1.142 2.382-1.411.977-.268 2.174-.402 3.591-.402 1.221 0 2.369.109 3.444.329v8.062h-4.36l.403 2.967h7.402V22.049c-.44-.17-.959-.323-1.558-.458a27.28 27.28 0 0 0-1.869-.347 26.523 26.523 0 0 0-3.902-.293c-2.321 0-4.195.287-5.625.86-1.428.574-2.54 1.387-3.334 2.438-.794 1.049-1.332 2.307-1.612 3.773-.281 1.466-.421 3.09-.421 4.874v2.71c0 1.858.17 3.53.512 5.02.342 1.49.953 2.767 1.833 3.83.879 1.062 2.07 1.88 3.572 2.455 1.503.574 3.402.86 5.698.86 1.148 0 2.272-.097 3.371-.292 1.099-.196 1.991-.416 2.675-.66l-.66-2.857c-.684.195-1.447.366-2.29.512-.843.147-1.777.22-2.803.22m20.226-9.893h5.496c1.612 0 2.84.348 3.682 1.044.843.696 1.264 1.838 1.264 3.426v.476c0 1.563-.379 2.724-1.135 3.481-.758.757-1.942 1.136-3.555 1.136h-5.752zm14.107 4.47c0-1.783-.416-3.292-1.246-4.526-.831-1.233-2.113-2.082-3.847-2.546l5.972-10.882h-4.067l-5.569 10.442h-5.35V21.317h-3.628v26.088h10.113c1.344 0 2.497-.189 3.463-.568.965-.379 1.752-.904 2.364-1.575a6.43 6.43 0 0 0 1.355-2.363c.293-.905.44-1.882.44-2.932zm25.501-3.298c0 1.808-.127 3.285-.384 4.434-.257 1.148-.654 2.05-1.191 2.712a4.19 4.19 0 0 1-2.015 1.374c-.806.256-1.76.384-2.858.384-1.1 0-2.052-.128-2.858-.384a4.19 4.19 0 0 1-2.015-1.374c-.538-.661-.941-1.571-1.21-2.73-.27-1.161-.403-2.633-.403-4.416v-3.225c0-1.807.129-3.285.385-4.433.257-1.15.654-2.052 1.19-2.711a4.19 4.19 0 0 1 2.016-1.374c.806-.257 1.759-.385 2.858-.385 1.1 0 2.052.128 2.859.385a4.2 4.2 0 0 1 2.015 1.374c.537.659.94 1.562 1.209 2.71.268 1.149.403 2.627.403 4.434zm-16.671 0c0 1.832.152 3.48.458 4.947.305 1.465.848 2.723 1.63 3.774.782 1.05 1.833 1.856 3.152 2.419 1.319.56 2.992.842 5.019.842 2.028 0 3.702-.281 5.02-.842 1.32-.563 2.357-1.363 3.115-2.401.757-1.038 1.282-2.297 1.575-3.774.294-1.478.44-3.133.44-4.965v-3.225c0-1.832-.153-3.48-.458-4.946-.305-1.466-.85-2.724-1.63-3.773-.782-1.051-1.833-1.858-3.151-2.42-1.32-.561-2.993-.842-5.02-.842-2.028 0-3.701.28-5.02.843-1.32.56-2.358 1.36-3.115 2.4-.757 1.038-1.282 2.296-1.575 3.774-.293 1.478-.44 3.132-.44 4.964zm33.893 11.433l12.275-20.19v20.19h3.371v-26.09h-3.334L110.2 41.507v-20.19h-3.37v26.09zm30.083-26.089h-3.665v26.089h3.665zm14.105 26.089l12.275-20.19v20.19h3.372v-26.09h-3.334l-12.276 20.19v-20.19h-3.371v26.09zm37.705-2.712c-1.49 0-2.755-.135-3.793-.402-1.038-.27-1.881-.752-2.527-1.45-.65-.694-1.118-1.635-1.411-2.82-.294-1.184-.441-2.692-.441-4.524v-2.455c0-1.81.135-3.292.403-4.453.269-1.16.708-2.077 1.32-2.748.61-.671 1.404-1.142 2.382-1.411.976-.268 2.173-.402 3.59-.402 1.22 0 2.37.109 3.445.329v8.062h-4.361l.403 2.967h7.402V22.049c-.44-.17-.96-.323-1.558-.458a27.136 27.136 0 0 0-3.846-.567 26.544 26.544 0 0 0-1.924-.073c-2.321 0-4.195.287-5.625.86-1.43.574-2.541 1.387-3.334 2.438-.795 1.049-1.332 2.307-1.612 3.773-.282 1.466-.421 3.09-.421 4.874v2.71c0 1.858.17 3.53.512 5.02.34 1.49.953 2.767 1.832 3.83.879 1.062 2.07 1.88 3.573 2.455 1.503.574 3.4.86 5.698.86a19.27 19.27 0 0 0 3.37-.292c1.1-.196 1.99-.416 2.675-.66l-.66-2.857c-.684.195-1.446.366-2.29.512-.842.147-1.777.22-2.802.22m32.939 2.712l-.439-3.005H212.28v-8.172h11.542l-.476-3.004H212.28V24.32h12.714l-.439-3.005h-15.94v26.09zm13.008 0l12.275-20.19v20.19h3.371v-26.09h-3.334l-12.275 20.19v-20.19h-3.371v26.09z" fill="#1d1d1b"/></g></svg>