<svg width="79" height="79" xmlns="http://www.w3.org/2000/svg"><g fill="none" fill-rule="evenodd"><circle fill="#444" cx="39.5" cy="39.5" r="39.5"/><g fill="#6bf" fill-rule="nonzero"><path d="M57.396 36.969l-2.818-.188a4.082 4.082 0 0 0-.16-.593 14.888 14.888 0 0 0-1.73-3.907s.865-.906 1.922-2.031.8-3.063-.608-4.281l-1.538-1.375c-.736-.657-1.665-1-2.53-1-.768 0-1.473.25-1.985.812l-1.954 2.063c-1.473-.688-3.074-1.125-4.74-1.344 0 0-.192-1.25-.448-2.781C40.551 20.937 39.174 20 37.573 20c-.225 0-.417.031-.641.063l-2.114.312c-1.89.281-3.202 1.781-2.946 3.344l.448 2.812a16.172 16.172 0 0 0-4.003 2.688s-1.153-.625-2.562-1.407c-.384-.218-.832-.312-1.28-.312-1.122 0-2.307.688-3.011 1.844l-1.057 1.781c-.96 1.625-.576 3.531.833 4.313l2.562 1.406a13.855 13.855 0 0 0-.353 4.75s-1.217.468-2.722 1.062c-1.505.594-2.145 2.469-1.44 4.188l.768 1.875c.576 1.375 1.825 2.218 3.042 2.218.32 0 .64-.062.929-.187l2.69-1.063a15.373 15.373 0 0 0 3.619 3.25s-.384 1.188-.833 2.688c-.448 1.469.64 3.094 2.466 3.625l2.018.594c.384.125.8.156 1.153.156 1.377 0 2.594-.719 2.946-1.844l.833-2.656h.128a16.56 16.56 0 0 0 4.227-.563l.673-.187s.704 1 1.6 2.25c.481.688 1.314 1.031 2.243 1.031.736 0 1.505-.218 2.21-.687l1.76-1.188c1.57-1.062 2.114-2.906 1.25-4.156l-1.602-2.219c1.09-1.281 1.922-2.75 2.53-4.312 0 0 1.25.093 2.819.187h.16c1.473 0 2.754-1.375 2.914-3.187l.16-2c.128-1.844-1.025-3.407-2.594-3.5zm1.25 3.437l-.16 2c-.065 1.094-.802 1.969-1.57 1.969h-.064l-2.818-.188-.993-.062-.352.906a13.619 13.619 0 0 1-2.306 3.938l-.64.75.576.812 1.6 2.25c.193.282.193.625.161.844-.096.531-.512 1.094-1.057 1.469l-1.761 1.187a2.646 2.646 0 0 1-1.473.469c-.513 0-.93-.188-1.153-.5L45.034 54l-.544-.781-.929.281c-.16.063-.384.125-.608.188-1.25.343-2.562.5-3.875.5h-1.089l-.288.937-.833 2.656c-.16.563-.865.938-1.697.938a2.38 2.38 0 0 1-.801-.125L32.352 58c-.64-.188-1.185-.563-1.44-1.063-.129-.218-.257-.562-.129-.937l.833-2.688.288-.937-.833-.531a13.606 13.606 0 0 1-3.33-2.969l-.577-.75-.928.344-2.69 1.062a1.044 1.044 0 0 1-.449.094c-.736 0-1.473-.594-1.825-1.438l-.769-1.874c-.256-.594-.256-1.22-.032-1.75.096-.25.32-.594.737-.75l2.722-1.063.928-.344-.096-.968a13.164 13.164 0 0 1 .32-4.344l.225-.969-.865-.469-2.562-1.406c-.352-.188-.512-.531-.576-.813-.16-.53-.064-1.156.256-1.687l1.057-1.781c.416-.719 1.153-1.188 1.857-1.188.224 0 .449.063.64.157l2.563 1.406.864.468.705-.656c1.089-1 2.306-1.843 3.683-2.468l.897-.407-.16-.968-.449-2.813a1.34 1.34 0 0 1 .384-1.094c.353-.406.897-.656 1.474-.75l2.113-.312c.16-.032.288-.032.449-.032.96 0 1.793.532 1.89 1.22l.447 2.78.16.97.993.124c1.506.188 2.979.594 4.356 1.219l.864.406.641-.687 1.954-2.063c.32-.312.736-.375 1.024-.375.577 0 1.153.25 1.634.657l1.537 1.375c.48.437.8 1.03.833 1.562 0 .25-.033.594-.289.875l-1.921 2.031-.673.719.545.844a13.461 13.461 0 0 1 1.6 3.593c.033.157.097.344.129.563l.224.938.993.062 2.818.188c.385.03.673.25.833.437.288.344.48 1 .416 1.656z"/><path d="M39.5 30C33.695 30 29 34.698 29 40.5S33.695 51 39.5 51 50 46.302 50 40.5 45.305 30 39.5 30zm0 19.676c-5.076 0-9.2-4.131-9.2-9.176 0-5.077 4.124-9.176 9.2-9.176s9.2 4.131 9.2 9.176c0 5.077-4.124 9.176-9.2 9.176z"/></g></g></svg>