<svg width="79" height="79" xmlns="http://www.w3.org/2000/svg"><g fill="none" fill-rule="evenodd"><circle fill="#444" cx="39.5" cy="39.5" r="39.5"/><path d="M37.714 56h-5a.708.708 0 0 1-.567-.29.762.762 0 0 1-.122-.644l8.571-32.522a.72.72 0 0 1 .69-.544h5c.222 0 .432.108.567.29a.76.76 0 0 1 .122.644l-8.571 32.521a.72.72 0 0 1-.69.545z" fill="#6BF" opacity=".501"/><path d="M26.591 30.65l-3.443-3.5a.487.487 0 0 0-.702 0L11.138 38.635a.546.546 0 0 0 0 .726l11.308 11.486c.104.082.207.14.345.14a.565.565 0 0 0 .357-.14l3.443-3.501a.53.53 0 0 0 0-.715L19.061 39l7.53-7.634a.531.531 0 0 0 0-.715zm41.27 7.986L56.555 27.15a.538.538 0 0 0-.345-.14.565.565 0 0 0-.357.14l-3.443 3.501a.53.53 0 0 0 0 .714L59.916 39l-7.507 7.634a.53.53 0 0 0 0 .714l3.443 3.501a.482.482 0 0 0 .702 0l11.308-11.486a.547.547 0 0 0 0-.726z" fill="#6BF" fill-rule="nonzero"/></g></svg>