<svg width="79" height="79" xmlns="http://www.w3.org/2000/svg"><g fill="none" fill-rule="evenodd"><circle fill="#444" cx="39.5" cy="39.5" r="39.5"/><path d="M69.226 32.955l-5.37-8.601A5.005 5.005 0 0 0 60.69 22.1a4.961 4.961 0 0 0-3.811.684c-1.467.95-2.28 2.553-2.312 4.2-.024.007-.047.01-.07.02l-2.117.864a.723.723 0 0 1-.428.038l-4.332-.92a19.148 19.148 0 0 0-7.546-.088L36 27.664a5.899 5.899 0 0 0-2.956 1.509l-3.793-.61a.736.736 0 0 1-.136-.035l-8.28-7.278a1 1 0 0 0-1.423.101 1.027 1.027 0 0 0 .1 1.439l8.39 7.374c.06.053.125.098.196.136.264.138.546.232.837.278l2.614.42-2.642 3.475a2.788 2.788 0 0 0-.546 2.069 2.773 2.773 0 0 0 1.068 1.85 2.738 2.738 0 0 0 2.938.246l7.38-3.9a.728.728 0 0 1 .74.035l15.876 10.404c.352.23.592.585.678 1 .086.413.006.836-.225 1.19a1.545 1.545 0 0 1-2.1.483l-.888-.537-.002-.001-.827-.5-6.869-4.156a1.003 1.003 0 0 0-1.383.35c-.286.484-.13 1.11.347 1.4l7.697 4.657a.992.992 0 0 1 .456.635 1 1 0 0 1-.139.772 1.826 1.826 0 0 1-2.401.607l-6.712-3.699a1.004 1.004 0 0 0-1.368.408 1.026 1.026 0 0 0 .403 1.384l4.844 2.67 1.195.737a.922.922 0 0 1 .425.619.928.928 0 0 1-.165.734.951.951 0 0 0-.041.06 1.637 1.637 0 0 1-2.14.589l-5.196-2.668a1.003 1.003 0 0 0-1.356.449 1.025 1.025 0 0 0 .442 1.371l4.323 2.219a4.367 4.367 0 0 1-3.004.626l-3.905-.604.277-.402a3.05 3.05 0 0 0-.536-4.037l-.017-.014a2.95 2.95 0 0 0-1.264-.602c.361-1.252-.02-2.655-1.066-3.512a3.256 3.256 0 0 0-1.945-.727c.012-.27.004-.541-.05-.813a3.29 3.29 0 0 0-1.426-2.126c-1.47-.97-3.463-.571-4.468.877a3.303 3.303 0 0 0-1.015-.995 3.214 3.214 0 0 0-3.957.436l-3.68-4.907a1.012 1.012 0 0 0-.465-.345l-7.492-2.7a1.007 1.007 0 0 0-1.29.618 1.024 1.024 0 0 0 .612 1.304l7.209 2.598 3.854 5.138-1.07 1.545c-1.015 1.469-.666 3.508.775 4.546l.057.04a3.186 3.186 0 0 0 1.823.606c0 1.046.483 2.08 1.388 2.723a3.226 3.226 0 0 0 2.472.55 3.35 3.35 0 0 0 .527-.151 3.293 3.293 0 0 0 1.51 1.746 3.24 3.24 0 0 0 1.536.388c.498 0 .99-.119 1.437-.34.322.608.838 1.09 1.483 1.36.364.152.746.224 1.125.224.905 0 1.786-.42 2.36-1.165l4.897.757a6.362 6.362 0 0 0 5.503-1.809c.115.012.23.02.345.02a3.648 3.648 0 0 0 3.068-1.685 3 3 0 0 0 .552-1.784l.045.002c1.26 0 2.498-.622 3.228-1.745.295-.453.447-.965.477-1.49.082.005.164.016.246.016a3.559 3.559 0 0 0 2.984-1.627 3.623 3.623 0 0 0 .515-2.732c-.027-.128-.075-.246-.115-.369l4.76-4.548c.066-.062.104-.14.15-.214.02.005.041.013.062.017a4.962 4.962 0 0 0 3.81-.683h.002c2.322-1.505 3.014-4.648 1.541-7.006zM22.08 51.064l.53-.87a1.25 1.25 0 0 1-.293-1.717l1.921-2.777a1.21 1.21 0 0 1 .998-.524 1.257 1.257 0 0 1 1.223.988c.064.304.01.611-.145.877l-2.02 2.99a1.202 1.202 0 0 1-1.629.202l-.585.83zm4.737 2.702a1.244 1.244 0 0 1-.954-.214 1.288 1.288 0 0 1-.315-1.76l.413-.61c.027-.037.06-.067.086-.105.596-.88 1.301-1.928 1.898-2.818.016-.023.024-.05.04-.074l1.612-2.387a1.259 1.259 0 0 1 1.728-.35c.286.189.48.479.547.817.067.339-.002.683-.194.968l-.553.82c-.012.017-.03.03-.041.049l-3.035 4.46c-.055.08-.09.17-.136.253l-.28.416h-.001c-.191.284-.48.474-.815.535zm3.336 1.797a1.257 1.257 0 0 1-.63-.823 1.27 1.27 0 0 1 .058-.778l3.205-4.751a1.244 1.244 0 0 1 1.79-.22 1.29 1.29 0 0 1 .246 1.712l-.911 1.339c-.022.03-.05.053-.071.083l-1.478 2.145c-.05.073-.08.155-.124.232l-.45.66a1.25 1.25 0 0 1-1.635.4zm4.288 1.326a.975.975 0 0 1-.529-1.249l1.654-2.432a.945.945 0 0 1 1.32-.12l.01.009c.385.32.463.893.178 1.307l-1.478 2.143a.96.96 0 0 1-1.155.342zm23.3-13.198c-.093-.076-.178-.16-.28-.226L41.585 33.06a2.732 2.732 0 0 0-2.774-.13l-7.379 3.9a.733.733 0 0 1-1.071-.561.744.744 0 0 1 .146-.553l3.473-4.568a3.905 3.905 0 0 1 2.388-1.48l4.075-.765a17.131 17.131 0 0 1 6.763.08l4.332.92a2.717 2.717 0 0 0 1.595-.143l1.816-.74c.108.263.233.521.389.77l5.37 8.601c.323.518.73.959 1.197 1.32l-4.163 3.979zm8.855-5.447a2.969 2.969 0 0 1-2.284.409 2.998 2.998 0 0 1-1.897-1.35l-5.37-8.601c-.884-1.414-.47-3.298.923-4.2a2.973 2.973 0 0 1 2.284-.409c.79.178 1.465.657 1.897 1.35l5.37 8.601c.883 1.414.469 3.297-.923 4.2z" fill="#6bf" fill-rule="nonzero"/></g></svg>