<svg width="80" height="79" xmlns="http://www.w3.org/2000/svg"><g fill="none" fill-rule="evenodd"><ellipse fill="#444" cx="40" cy="39.5" rx="40" ry="39.5"/><path fill="#6BF" opacity=".5" d="M13 44.286L35.457 24 36 53H13z"/><path d="M64.376 24H35.91a.612.612 0 0 0-.624.609v27.782c0 .34.275.609.624.609h28.466a.612.612 0 0 0 .624-.609V24.609a.612.612 0 0 0-.624-.609zM21.727 44.3h-8.54a.183.183 0 0 0-.187.183v8.334c0 .103.082.183.187.183h8.54c.105 0 .187-.08.187-.183v-8.334a.183.183 0 0 0-.187-.183z" fill="#6BF" fill-rule="nonzero"/></g></svg>