<svg width="64" height="48" xmlns="http://www.w3.org/2000/svg"><g fill="#268CFC"><path d="M63.375 30.16C63.375 13.672 49.3.258 32 .258S.625 13.672.625 30.16c0 6.075 1.902 11.92 5.498 16.909l.014.021.021.032c.014.019.032.032.046.05a1.456 1.456 0 0 0 .435.371c.034.019.067.039.102.056.071.032.145.058.221.079.028.009.056.021.084.026.105.023.214.038.326.038h49.4a1.5 1.5 0 0 0 1.471-1.213c3.351-4.869 5.132-10.515 5.132-16.369zM32 3.258c15.646 0 28.375 12.068 28.375 26.902 0 5.209-1.579 10.235-4.545 14.582H8.174c-2.968-4.348-4.549-9.367-4.549-14.582C3.625 15.327 16.354 3.258 32 3.258z"/><path d="M30.303 41.217a5.883 5.883 0 0 0 5.876-5.877 5.85 5.85 0 0 0-.446-2.242l12.532-13.063a1.5 1.5 0 1 0-2.164-2.077L33.886 30.691a5.84 5.84 0 0 0-3.583-1.229 5.884 5.884 0 0 0-5.876 5.877 5.884 5.884 0 0 0 5.876 5.878zm0-8.754a2.88 2.88 0 0 1 2.876 2.877 2.88 2.88 0 0 1-2.876 2.877 2.88 2.88 0 0 1-2.876-2.877 2.88 2.88 0 0 1 2.876-2.877z"/></g></svg>