<svg xmlns="http://www.w3.org/2000/svg" viewBox="0 0 24 24"><g stroke="#fff" fill="none" stroke-width="1.5" stroke-linecap="round" stroke-linejoin="round"><path d="M12 .75C5.811.728.773 5.721.74 11.91a11.005 11.005 0 0 0 2.14 6.54l-1.4 4.15 4.32-1.37c5.198 3.413 12.179 1.966 15.593-3.232a11.255 11.255 0 0 0 1.847-6.088C23.207 5.729 18.181.739 12 .75"/><path d="M18.07 14.66c-.07-.12-.27-.2-.56-.34s-1.74-.85-2-.95-.47-.15-.66.15-.5.73-.67.92-.34.22-.64.07a9.202 9.202 0 0 1-4.14-3.58c-.17-.29 0-.45.13-.59.49-.49.5-.42.62-.66a.53.53 0 0 0 0-.51C10 9 9.45 7.58 9.2 7s-1.51-.69-2-.15C2 12.33 14.67 21.72 17.91 16a1.41 1.41 0 0 0 .16-1.32"/></g></svg>